<svg width="163" height="26" viewBox="0 0 163 26" fill="none" xmlns="http://www.w3.org/2000/svg">
<path d="M6.3664 1.23988H12.6304L18.0304 24.9999H12.2344L11.1184 19.7079H7.6984L6.6544 24.9999H0.858398L6.3664 1.23988ZM10.7944 14.6319L9.6064 7.68388H9.1744L8.0224 14.6319H10.7944Z" fill="white"/>
<path d="M20.124 1.23988H28.656C30.84 1.23988 32.508 1.92388 33.66 3.29188C34.836 4.65988 35.436 6.43588 35.46 8.61988C35.436 9.91588 35.112 11.0919 34.488 12.1479C33.888 13.2039 33 14.0439 31.824 14.6679C30.672 15.2679 29.304 15.5679 27.72 15.5679H25.776V24.9999H20.124V1.23988ZM27.252 11.2479C27.924 11.2479 28.392 11.0439 28.656 10.6359C28.92 10.2279 29.052 9.53188 29.052 8.54788C29.052 7.41988 28.944 6.63988 28.728 6.20788C28.536 5.77588 28.128 5.55988 27.504 5.55988H25.776V11.2119L27.252 11.2479Z" fill="white"/>
<path d="M37.5615 1.23988H50.1975V7.28788H42.0975V10.4199H49.8735V16.0359H42.0975V19.2039H50.1975V24.9999H37.5615V1.23988Z" fill="white"/>
<path d="M59.6402 25.3599C58.3442 25.3599 57.1442 25.0839 56.0402 24.5319C54.9602 23.9559 54.0962 23.1519 53.4482 22.1199C52.8002 21.0879 52.4762 19.8999 52.4762 18.5559V16.8999H58.1642V19.4199C58.1642 19.9479 58.3322 20.3559 58.6682 20.6439C59.0282 20.9319 59.4242 21.0759 59.8562 21.0759C60.9122 21.0759 61.4402 20.5479 61.4402 19.4919V17.5479C61.4402 16.2519 60.7202 15.5439 59.2802 15.4239C57.2642 15.3039 55.5602 14.7519 54.1682 13.7679C52.8002 12.7599 52.1162 11.1999 52.1162 9.08788V7.68388C52.1162 6.26788 52.4522 5.05588 53.1242 4.04788C53.7962 3.01588 54.6842 2.23588 55.7882 1.70788C56.8922 1.15588 58.1042 0.879883 59.4242 0.879883C60.6482 0.879883 61.8122 1.15588 62.9162 1.70788C64.0442 2.23588 64.9562 3.01588 65.6522 4.04788C66.3482 5.07988 66.6962 6.29188 66.6962 7.68388V9.44788H61.0802V6.85588C61.0802 6.32788 60.9122 5.91988 60.5762 5.63188C60.2402 5.34388 59.8562 5.19988 59.4242 5.19988C58.9442 5.19988 58.5482 5.33188 58.2362 5.59588C57.9482 5.85988 57.8042 6.26788 57.8042 6.81988V8.58388C57.8042 9.39988 58.0322 9.97588 58.4882 10.3119C58.9442 10.6479 59.6402 10.8399 60.5762 10.8879C62.4722 10.9599 64.0322 11.4759 65.2562 12.4359C66.5042 13.3719 67.1282 14.8239 67.1282 16.7919V18.5919C67.1282 19.9599 66.7922 21.1599 66.1202 22.1919C65.4482 23.2239 64.5482 24.0159 63.4202 24.5679C62.2922 25.0959 61.0322 25.3599 59.6402 25.3599Z" fill="white"/>
<path d="M72.5352 7.14388H68.3232V1.23988H82.3632V7.14388H78.1872V24.9999H72.5352V7.14388Z" fill="white"/>
<path d="M85.9953 1.23988H92.2593L97.6593 24.9999H91.8633L90.7473 19.7079H87.3273L86.2833 24.9999H80.4873L85.9953 1.23988ZM90.4233 14.6319L89.2353 7.68388H88.8033L87.6513 14.6319H90.4233Z" fill="white"/>
<path d="M99.7529 1.23988H107.961C110.121 1.23988 111.789 1.88788 112.965 3.18388C114.165 4.45588 114.777 6.20788 114.801 8.43988C114.777 9.71188 114.597 10.8279 114.261 11.7879C113.949 12.7239 113.517 13.4079 112.965 13.8399C113.949 14.5599 114.441 16.0959 114.441 18.4479V24.9999H108.609V19.5279C108.609 18.6879 108.501 18.0519 108.285 17.6199C108.069 17.1879 107.637 16.9719 106.989 16.9719H105.405V24.9999H99.7529V1.23988ZM106.953 12.6159C107.649 12.6159 108.105 12.3879 108.321 11.9319C108.537 11.4519 108.645 10.5759 108.645 9.30388C108.645 8.29588 108.597 7.52788 108.501 6.99988C108.405 6.47188 108.237 6.09988 107.997 5.88388C107.781 5.66788 107.445 5.55988 106.989 5.55988H105.405V12.6159H106.953Z" fill="white"/>
<path d="M120.453 7.14388H116.241V1.23988H130.281V7.14388H126.105V24.9999H120.453V7.14388Z" fill="white"/>
<path d="M132.378 1.23988H145.014V7.28788H136.914V10.4199H144.69V16.0359H136.914V19.2039H145.014V24.9999H132.378V1.23988Z" fill="white"/>
<path d="M147.108 1.23988H155.316C157.476 1.23988 159.144 1.88788 160.32 3.18388C161.52 4.45588 162.132 6.20788 162.156 8.43988C162.132 9.71188 161.952 10.8279 161.616 11.7879C161.304 12.7239 160.872 13.4079 160.32 13.8399C161.304 14.5599 161.796 16.0959 161.796 18.4479V24.9999H155.964V19.5279C155.964 18.6879 155.856 18.0519 155.64 17.6199C155.424 17.1879 154.992 16.9719 154.344 16.9719H152.76V24.9999H147.108V1.23988ZM154.308 12.6159C155.004 12.6159 155.46 12.3879 155.676 11.9319C155.892 11.4519 156 10.5759 156 9.30388C156 8.29588 155.952 7.52788 155.856 6.99988C155.76 6.47188 155.592 6.09988 155.352 5.88388C155.136 5.66788 154.8 5.55988 154.344 5.55988H152.76V12.6159H154.308Z" fill="white"/>
</svg>
