<?xml version="1.0" encoding="utf-8"?>
<!-- Generator: Adobe Illustrator 26.0.2, SVG Export Plug-In . SVG Version: 6.00 Build 0)  -->
<svg version="1.1" id="Camada_1" xmlns="http://www.w3.org/2000/svg" xmlns:xlink="http://www.w3.org/1999/xlink" x="0px" y="0px"
	 viewBox="0 0 443 590" style="enable-background:new 0 0 443 590;" xml:space="preserve">
<style type="text/css">
	.st0{clip-path:url(#SVGID_00000143591640263587595660000009699678396889206677_);}
	.st1{clip-path:url(#SVGID_00000058584528280638845960000004916071926725270932_);}
	.st2{fill:url(#SVGID_00000093872411675883469090000002274549046011943576_);}
	.st3{fill:url(#SVGID_00000099644451267123082160000005424875554472720028_);}
	.st4{fill:#8C8D85;}
	.st5{fill:#DBDCDD;}
	.st6{fill:url(#SVGID_00000028311834898175119850000012028443074353299335_);}
	.st7{clip-path:url(#SVGID_00000106109809242376399740000001736740958309371558_);}
	.st8{fill:url(#SVGID_00000101083623186801114470000013530215823811416252_);}
	.st9{fill:url(#SVGID_00000114787559416995652790000002339821493866269624_);}
	.st10{fill:url(#SVGID_00000109710294444455463860000003012378360748831146_);}
	.st11{fill:#2E0F07;}
	.st12{fill:url(#SVGID_00000057136895076917497120000004625862352372612751_);}
	.st13{fill:url(#SVGID_00000002354103346375713350000002089800941957158589_);}
	.st14{fill:#5F3621;}
	.st15{fill:url(#SVGID_00000139266752450640421530000008341566694013242250_);}
	.st16{fill:url(#SVGID_00000147192274925908074340000005420066731172923577_);}
	.st17{opacity:0.2;fill:#FFFFFF;enable-background:new    ;}
	.st18{fill:url(#SVGID_00000091726726162227602450000001076405901173307309_);}
	.st19{opacity:0.6;}
	.st20{fill:#E4A641;}
	.st21{fill:url(#SVGID_00000052806054892471765450000001184155377951935657_);}
	.st22{fill:#254C26;}
	.st23{fill:url(#SVGID_00000104679866405143268100000006501969334587561860_);}
	.st24{fill:#295027;}
	.st25{fill:url(#SVGID_00000111889320567256031770000008002824029649123738_);}
	.st26{fill:#315C2C;}
	.st27{fill:url(#SVGID_00000083091406688141751810000010728125872626255288_);}
	.st28{fill:url(#SVGID_00000145024129533163081620000003277183175443282364_);}
	.st29{fill:url(#SVGID_00000157996184683675884070000015642094639548777355_);}
	.st30{fill:url(#SVGID_00000153672162493273487510000004342567831380989320_);}
	.st31{fill:url(#SVGID_00000041273097473271984010000000541644750422223029_);}
	.st32{fill:url(#SVGID_00000099627953903282088440000015160720597262569620_);}
	.st33{fill:url(#SVGID_00000103240614965727557850000003965980950492369302_);}
	.st34{fill:url(#SVGID_00000072280299821617485290000006286063452382771116_);}
	.st35{fill:url(#SVGID_00000078023572277554610190000013986461277271618237_);}
	.st36{fill:url(#SVGID_00000090975933100648862780000018415955641078588085_);}
	.st37{fill:url(#SVGID_00000180338307411619527660000007452186944449470848_);}
</style>
<g>
	<defs>
		<rect id="SVGID_1_" x="-12" y="-142" width="596" height="732"/>
	</defs>
	<clipPath id="SVGID_00000041262817788404026420000009242983000336100499_">
		<use xlink:href="#SVGID_1_"  style="overflow:visible;"/>
	</clipPath>
	<g style="clip-path:url(#SVGID_00000041262817788404026420000009242983000336100499_);">
		<g>
			<defs>
				
					<rect id="SVGID_00000160898186971300970570000005735199400695985291_" x="-64.4" y="258.1" transform="matrix(0.9988 -4.951428e-02 4.951428e-02 0.9988 -21.4666 1.6766)" width="175" height="352"/>
			</defs>
			<clipPath id="SVGID_00000046329847177863102470000017463510963760318368_">
				<use xlink:href="#SVGID_00000160898186971300970570000005735199400695985291_"  style="overflow:visible;"/>
			</clipPath>
			<g style="clip-path:url(#SVGID_00000046329847177863102470000017463510963760318368_);">
				
					<radialGradient id="SVGID_00000012457253048881851400000016083453209496730023_" cx="92.1636" cy="423.6669" r="1" gradientTransform="matrix(-510.7987 25.3218 25.318 510.7228 36250.6484 -218563.9062)" gradientUnits="userSpaceOnUse">
					<stop  offset="0" style="stop-color:#D5D7CA"/>
					<stop  offset="1" style="stop-color:#737269"/>
				</radialGradient>
				<path style="fill:url(#SVGID_00000012457253048881851400000016083453209496730023_);" d="M79.4,287.9c0,0-114.5,45.8-117.3,45.9
					c-1,0-12.5-3.3-27.4-7.7l-0.2-63.9L79.4,287.9z"/>
				
					<radialGradient id="SVGID_00000067226792436432359530000005126003095102516901_" cx="92.0807" cy="423.8356" r="1" gradientTransform="matrix(-1035.2588 51.3208 51.3129 1035.0989 73807.3281 -442410.375)" gradientUnits="userSpaceOnUse">
					<stop  offset="0" style="stop-color:#D5D7CA"/>
					<stop  offset="1" style="stop-color:#737269"/>
				</radialGradient>
				<path style="fill:url(#SVGID_00000067226792436432359530000005126003095102516901_);" d="M-35.9,473.2c0.5-3.2,0.8-6.4,0.7-9.7
					c-0.8-2.2-2.8-129.7-2.8-129.7c2.9-0.1,117.3-45.9,117.3-45.9c1,5.1,5.4,55.9,5.4,55.9L74.3,537.5l-6,70.5l-32.1-11.9
					L-35.9,473.2z"/>
				<g>
					<path class="st4" d="M-37.3,370.9c34.2-8.4,66.8-22,100.1-33.6c-33.8,13.5-66.2,30-99.9,43.7
						C-37.2,377.5-37.2,374.1-37.3,370.9z"/>
				</g>
				<g>
					<g>
						<path class="st4" d="M84.6,341.2c0.1,1.7,0.1,2.6,0.1,2.6L84,357.1c-27.4,4.8-55,8.3-81.9,14.8
							C29.1,361.3,56.2,347.8,84.6,341.2z"/>
					</g>
				</g>
				<g>
					<g>
						<path class="st4" d="M-17,425.3c32.8-16.5,68.8-26.8,99.9-46.3l-0.9,15.4C49.3,405.4,16.3,415.3-17,425.3z"/>
					</g>
				</g>
				<g>
					<g>
						<path class="st4" d="M76.5,409.5l4.9-1.9l-0.4,7.3c-19.9,5.3-40.1,9.6-59.9,14.9C38.8,420.6,58.5,417.7,76.5,409.5z"/>
					</g>
				</g>
				<g>
					<g>
						<path class="st4" d="M-35.1,463.5c0-0.3-0.2-3.9-0.5-9.5c39-5.2,77.6-12.8,115.6-22.8c-37,15.6-76.6,24.1-115.2,35
							C-35,465.3-35,464.4-35.1,463.5z"/>
					</g>
				</g>
				<g>
					<g>
						<path class="st4" d="M12.7,466.6c21.8-7.4,43.9-13.5,66.4-18.4l-0.5,9.5c-16.8,2.2-33.6,4.1-50.5,5.8
							C22.8,464.2,18.1,466.4,12.7,466.6z"/>
					</g>
				</g>
				<g>
					<g>
						<path class="st4" d="M76,506.5l-1.4,25.2c-19.2-3-37.6-6.3-57-6.5C37,518.4,56.7,513.1,76,506.5z"/>
					</g>
				</g>
				<g>
					<path class="st5" d="M8.9,536.3c-2.3,0.6-4.6,1-6.9,1.6l-0.3-0.6C4.1,537,6.5,536.7,8.9,536.3z"/>
				</g>
				<g>
					<path class="st5" d="M23.1,558c-2.6,0.9-5.2,1.7-7.8,2.5l-0.2-0.4C17.8,559.5,20.5,558.8,23.1,558z"/>
				</g>
				<g>
					<g>
						<path class="st4" d="M73,553.2l-0.8,9.8c-16.1,4.4-32.9,7-49.5,10.1l-2.3-3.9C37.7,563.5,55.4,558.5,73,553.2z"/>
					</g>
				</g>
				<g>
					<g>
						<path class="st4" d="M71.3,572.3l-1,12.1c-12,3.3-24.1,6-36.2,8.3l-4.7-8.1C43.4,580.6,57.4,576.7,71.3,572.3z"/>
					</g>
				</g>
				<g>
					<path class="st4" d="M44.8,540.9c-11.5,3.6-23,7.2-34.6,10.7l-2.4-4.1C20,545.2,32.3,543.1,44.8,540.9z"/>
				</g>
				<g>
					<g>
						<path class="st4" d="M53.4,483.1c-23.2,7.6-45.7,17.1-68.4,25.7l-7.2-12.4C3,491.8,28.1,486.2,53.4,483.1z"/>
					</g>
				</g>
				<g>
					<g>
						<path class="st4" d="M-36.8,393.4c31.6-4.5,63.2-11,93.6-21.8C26.2,384.3-5,395.4-36.7,404.9L-36.8,393.4z"/>
					</g>
				</g>
				<g>
					<path class="st4" d="M-37.8,340.1c38-12.4,75.7-21.9,115.7-31l3.7-0.9c0,0.2,0,0.5,0,0.7c-40.4,10.8-80.2,23.4-119.4,37.6
						C-37.7,344.2-37.8,342.1-37.8,340.1z"/>
				</g>
				
					<radialGradient id="SVGID_00000022548882719116589420000015524858615492222909_" cx="92.0505" cy="423.8972" r="1" gradientTransform="matrix(-1655.6169 82.0738 82.0619 1655.3772 117575.4609 -708600.125)" gradientUnits="userSpaceOnUse">
					<stop  offset="0" style="stop-color:#D5D7CA"/>
					<stop  offset="1" style="stop-color:#737269"/>
				</radialGradient>
				<path style="fill:url(#SVGID_00000022548882719116589420000015524858615492222909_);" d="M76.9,489.6L76.2,503
					c0,0-59.2,21.4-58.3,21.7c0.9,0.3,94.8-17.3,94.8-17.3l1.5-2L76.9,489.6z"/>
			</g>
		</g>
		<g>
			<defs>
				<rect id="SVGID_00000160155183206767417940000013707007325857309626_" x="-12" width="455" height="559"/>
			</defs>
			<clipPath id="SVGID_00000062873377994820741540000002719674511601102225_">
				<use xlink:href="#SVGID_00000160155183206767417940000013707007325857309626_"  style="overflow:visible;"/>
			</clipPath>
			<g style="clip-path:url(#SVGID_00000062873377994820741540000002719674511601102225_);">
				
					<radialGradient id="SVGID_00000145042304209285577400000005822748676731610504_" cx="92.1207" cy="423.7821" r="1" gradientTransform="matrix(-762.086 0 0 761.991 70342.5 -322729.9688)" gradientUnits="userSpaceOnUse">
					<stop  offset="0" style="stop-color:#BB6D42"/>
					<stop  offset="0.99" style="stop-color:#65361D"/>
				</radialGradient>
				<path style="fill:url(#SVGID_00000145042304209285577400000005822748676731610504_);" d="M268.1,501.3
					c1.5-0.3,13.1,1.8,13.1,1.8c0.2,0.3,3.1,16.1,6.5,35.4l-14.5,3.7C269.1,517.5,267.1,501.5,268.1,501.3z"/>
				
					<radialGradient id="SVGID_00000176008732880536382790000000611151064903414449_" cx="92.2896" cy="423.4774" r="1" gradientTransform="matrix(-317.705 0 0 317.666 29782.6914 -133822.1406)" gradientUnits="userSpaceOnUse">
					<stop  offset="0" style="stop-color:#72391C"/>
					<stop  offset="1" style="stop-color:#330000"/>
				</radialGradient>
				<path style="fill:url(#SVGID_00000176008732880536382790000000611151064903414449_);" d="M268.1,501.3
					c1.5-0.3,13.1,1.8,13.1,1.8c0.2,0.3,3.1,16.1,6.5,35.4l-14.5,3.7C269.1,517.5,267.1,501.5,268.1,501.3z"/>
				
					<radialGradient id="SVGID_00000127732680521065363920000006682018464167296954_" cx="92.1175" cy="423.788" r="1" gradientTransform="matrix(-783.251 0 0 783.152 72265.1719 -331703.3438)" gradientUnits="userSpaceOnUse">
					<stop  offset="0" style="stop-color:#72391C"/>
					<stop  offset="1" style="stop-color:#330000"/>
				</radialGradient>
				<path style="fill:url(#SVGID_00000127732680521065363920000006682018464167296954_);" d="M381.1,439.1c0,0-9.9,19.6-10.3,21.2
					c-0.4,1.6-5.3,7.4-6.2,7.6c-1,0.2-28.2,0.6-27.8,0c0.4-0.6-1.4-7.4,0-7.4c1.4,0,22.6,3.3,23.5,2.8c0.9-0.5,5.6-3.1,5.6-3.1
					s9.3-18.9,9.7-19.4s2.3-5.6,2.3-5.6h4.9L381.1,439.1z"/>
				<path class="st11" d="M365.9,461.8c-0.6-0.1-1.2-0.4-1.8-0.7l1.8-1c0,0,9.3-18.9,9.7-19.4c0.4-0.6,2.3-5.6,2.3-5.6h4.9l-1.8,4.1
					c0,0-9.9,19.6-10.3,21.2c-0.4,1.6-5.3,7.4-6.2,7.6c-0.3,0-3,0.1-6.6,0.2C360.5,466.1,363.6,464.4,365.9,461.8z"/>
				
					<radialGradient id="SVGID_00000039855890516733159220000004334409490029077657_" cx="92.1125" cy="423.7969" r="1" gradientTransform="matrix(-817.634 0 0 817.531 75399.2188 -346275.4375)" gradientUnits="userSpaceOnUse">
					<stop  offset="0" style="stop-color:#BB6D42"/>
					<stop  offset="0.99" style="stop-color:#65361D"/>
				</radialGradient>
				<path style="fill:url(#SVGID_00000039855890516733159220000004334409490029077657_);" d="M123.3,437.6
					c2.5-3.3,18.5-19.1,19.1-20c0.6-1,1-7.2,1.2-7.8c0.2-0.6,2-95.8,2-96.6c0-0.9-4.4-19-2.6-19.8c1.8-0.9,34.2-16.9,34.4-17.8
					s-0.6-21.6,0.3-21.3c0.9,0.3,10.8,0,10.8,0s-3.6,19.3-1.8,19.3c1.8,0,12.6,2,12.6,2l30-6.7l11.7-5.3l22.5,8.5
					c0,0,80.5-13.1,81.4-13.1c0.9,0,39.4-14.3,40.3-14c0.9,0.3,41.7,5.8,42.6,7c0.9,1.2,4.4,5.8,4.4,7c0,1.2-16.6,44.3-17.5,44.9
					c-0.9,0.6-44.1,86.6-44.1,86.6v2.3c0,0,31.1,32.8,31.7,33c0.6,0.2,31.1,9.4,31.1,9.4s3.5,4.7,6.4,19.4
					c2.9,14.8,3.9,23.5,2.7,23.1c-1.2-0.4-12.2-8.3-12.4-13c-0.2-4.7,0.4-23.9-1.2-24.7c-1.6-0.8-28.4-10.9-27.8-10.7
					c0.6,0.2,5.4,11.7,8.8,25.2c1.9,7.2,3,14.6,3.5,22c0,0-29.4,14.6-30.5,12.6c-1.2-1.9-3-12.3,1.9-14c4.9-1.7,18.3-1.8,18.3-2.7
					s-2.3-26.9-3.6-33.9c-1.3-7-2.1-8.4-2.1-8.4l-16.1,33.7c0,0-22.9-12.1-28.2-16.3c-5.3-4.3-9.7-6.6-9.1-6.8
					c0.6-0.2,7.4-5.9,15.8-1.9c8.3,3.9,20,16.1,20,16.1l10.1-21l-9.8,7.7l-4.2-0.8c0,0-24-36.4-23.4-36.8c1-1.6,1.7-3.3,2.1-5
					c0.2-1,2.1-7.2,1.8-8.6c-0.4-1.4-9.9-21.6-10.5-21.6c-0.6,0-17.7,8.9-22.4,4.7c-4.7-4.2-6.6-11.3-6-11.7
					c0.6-0.4,33.4-0.2,34.2,0.4c0.8,0.6,9.7,24.3,9.7,24.3s19.3-93.2,20.2-94.9c0.9-1.8,28.8-28.6,27.8-28.8
					c-1-0.2-15.2,2.3-15.2,2.3s-44.6,16-45.9,15.8c-1.4-0.2-81.2,6.6-81.2,6.6c1.5,0.6,20.1,35,20.1,35.9v6.4c0,0,26.6,65.9,26,79.9
					c-0.6,14-23,93.7-23,93.7s-2.2,14.1-4.8,35.7l-13.8,3.6c5-18.7,8.4-32.1,7.7-32.3c-1-0.3-24.7-1.2-26.4-1.2
					c-1.8,0-12.3-0.9-12.3-0.9s-10.5,28.7-17.2,46.8l-15.1,3.9l7.8-15.7l23.1-61.5c0,0,18.4-64.8,18.4-67.4c0-2.6-0.6-34.7-3.5-38.5
					c-3-3.8-52.2-47.5-54.3-47.8c-2-0.3-16.6-4.1-17.5-4.7c-0.9-0.6-15.8-8.5-15.8-8.5l-1.8,22.3c0,0-9.9,87.2-9.9,88.1
					c0,0.9,3.5,37.1,2.6,37.9c-0.6,0.6-12.2,41.2-19.3,66.6l-15.2-6.5C122.2,493.3,121.5,440,123.3,437.6z"/>
				
					<radialGradient id="SVGID_00000165220634832797939520000008404334808459002014_" cx="93.7468" cy="420.8477" r="1" gradientTransform="matrix(-52.6662 0 0 52.6596 5197.8892 -21877.5078)" gradientUnits="userSpaceOnUse">
					<stop  offset="0" style="stop-color:#BB6D42"/>
					<stop  offset="0.99" style="stop-color:#65361D"/>
				</radialGradient>
				<path style="fill:url(#SVGID_00000165220634832797939520000008404334808459002014_);" d="M258.8,288c2.8-0.4,5.6-0.5,8.5-0.3
					c2.6,3,19.9,34.8,19.9,35.6v0.1c-2.2-2.6-4.5-5.3-6.7-8C272.8,306.1,266.4,297,258.8,288z"/>
				<path class="st14" d="M142.5,417.2c0.5-1.6,0.8-6.9,1-7.4c0.2-0.5,0.9-38.4,1.5-66.7c2.1-11,5.1-21.8,8.7-32.3
					c1.7-5.3,9.9-7.9,11.4-13.1c1.5-4.7,0.2-9.8-1.1-14.9c7.1-3.6,13.3-6.9,13.4-7.2c0.3-0.9-0.6-21.6,0.3-21.3
					c0.9,0.3,10.8,0,10.8,0s-3.6,19.3-1.8,19.3c1.8,0,12.6,2,12.6,2l23.1-5.3c0.7,6.3,0.5,12.6-0.6,18.8c6.4-1.5,12.5-2.6,19-3.5
					c24.5-3.2,47.8-3.8,72.3-7.6c9.9-1.5,19.6-0.6,29.5-2.6c16.9-3.8,30.3-13.1,47.3-15.8c7.9-1.5,15.5,0.6,23.1,0.9
					c-1.6,1.5-3.3,2.9-5.2,4.2c1.1-1.2,1.7-2,1.6-2c-1-0.2-15.2,2.3-15.2,2.3s-44.6,15.9-45.9,15.8c-1.4-0.2-81.2,6.6-81.2,6.6
					c0.1,0.1,0.2,0.1,0.3,0.2c-2.8-0.2-5.7-0.1-8.5,0.3c7.6,9,14,18.1,21.6,27.4c2.3,2.8,4.5,5.5,6.7,8v6.3c0,0,26.6,65.9,26,79.9
					c-0.1,1.3-0.2,2.7-0.4,4c-2.3-6.4-4.6-12.9-6.9-19.5c-12.8,2-26,2.6-39.1,3.5c-3.1,4.9-6,9.7-9.3,14.3
					c-0.2-8.1-0.9-32.8-3.5-36.1c-3-3.8-52.2-47.5-54.3-47.8c-2-0.3-16.6-4.1-17.5-4.7c-0.9-0.6-15.8-8.4-15.8-8.4l-1.8,22.3
					c0,0-9.9,87.2-9.9,88.1c0,0.9,3.1,32.6,2.7,37.3c-3-15.1-5.8-30.2-8.6-45.2C146.8,417.3,144.6,417.3,142.5,417.2z"/>
				
					<radialGradient id="SVGID_00000021120407004277928910000004598124441206007189_" cx="93.0386" cy="422.1257" r="1" gradientTransform="matrix(-88.579 0 0 88.5679 8385.3359 -37109.8281)" gradientUnits="userSpaceOnUse">
					<stop  offset="0" style="stop-color:#BB6D42"/>
					<stop  offset="0.99" style="stop-color:#65361D"/>
				</radialGradient>
				<path style="fill:url(#SVGID_00000021120407004277928910000004598124441206007189_);" d="M165.1,297.6
					c-1.5,5.3-9.6,7.9-11.4,13.1c-3.7,10.5-6.6,21.3-8.7,32.3c0.3-16.5,0.6-29.7,0.6-30c0-0.9-4.4-19-2.6-19.8
					c1-0.5,11.8-5.9,21-10.6C165.4,287.8,166.6,292.9,165.1,297.6z"/>
				
					<radialGradient id="SVGID_00000018213049359097117500000003863170330500473787_" cx="92.2938" cy="423.4698" r="1" gradientTransform="matrix(-313.101 0 0 313.062 28964.0098 -132130.2031)" gradientUnits="userSpaceOnUse">
					<stop  offset="0" style="stop-color:#72391C"/>
					<stop  offset="1" style="stop-color:#330000"/>
				</radialGradient>
				<path style="fill:url(#SVGID_00000018213049359097117500000003863170330500473787_);" d="M122.2,471.8c1.7-1.2,3-2.8,3.9-4.7
					c1.8,2.6,3.2,9,5.3,7.3c2.6-1.8,1.8-6.7,3.2-10.2c3.5,3.2,8.5,6.1,9,11.4c4.1-3,5.8-8.5,7.9-13.1c0.7,6.2,0.9,12.4,0.4,18.6
					c-4.1,14.2-9.7,33.9-13.8,48.6l-15.2-6.5C122.5,508.7,122.2,488.8,122.2,471.8z"/>
				<path class="st17" d="M147.3,430.7c0,3.2,2.3,6.4,1.8,10.2c-2,14.6-4.1,28.6-7,42.6c-2.1-15.8-4.4-31.8-2.6-47.8
					c-3.2,2.3-8.7,4.1-8.7,6.1c-0.5,27.1-5,54-8,81.1c-0.5-29.8-1.2-82.8,0.6-85.2c2.5-3.3,18.5-19.1,19.1-20
					c0.1-0.1,0.1-0.2,0.1-0.4c2.1,0,4.2,0,6.3,0c0.1,0.7,0.3,1.5,0.4,2.2C148,423.1,147.3,426.8,147.3,430.7z"/>
				<path class="st14" d="M239.2,502.4c13.1-0.9,26.5,3.8,39.3,7.8c-3.8-0.3-24.2-1.1-25.8-1.1s-12.3-0.9-12.3-0.9
					s-10.5,28.7-17.2,46.8l-6.8,1.8c5.6-15.4,11.7-30.6,18.7-45.7C236.6,507.9,237.5,502.4,239.2,502.4z"/>
				
					<radialGradient id="SVGID_00000145057323826621562420000004799322791408840087_" cx="92.3132" cy="423.4348" r="1" gradientTransform="matrix(-293.764 0 0 293.727 27443.5254 -124104.1719)" gradientUnits="userSpaceOnUse">
					<stop  offset="0" style="stop-color:#72391C"/>
					<stop  offset="1" style="stop-color:#330000"/>
				</radialGradient>
				<path style="fill:url(#SVGID_00000145057323826621562420000004799322791408840087_);" d="M387.2,291.5c0.6,2,1.2,3.8,1.8,5.8
					c4.1-1.8,6.7-5.5,9.9-8.2v11.7c6.4-0.9,10.8-6.1,16.3-8.7c-0.8,4.9-1.4,9.8-2.3,14.7c-8.1,15.3-42.4,83.6-42.4,83.6v2.3
					c0,0,31.1,32.8,31.7,33c0.6,0.2,31.1,9.4,31.1,9.4s3.5,4.7,6.4,19.4c2.9,14.8,3.9,23.5,2.7,23.1c-1.2-0.4-12.2-8.3-12.4-13
					c-0.2-4.7,0.4-23.9-1.2-24.7c-1.6-0.8-27.3-10.4-27.8-10.7c0.6,0.2,5.5,11.7,8.8,25.2c1.9,7.2,3,14.6,3.5,22
					c0,0-29.4,14.6-30.5,12.6c-1.2-1.9-3-12.3,1.9-14c4.9-1.7,18.3-1.8,18.3-2.7s-2.4-26.9-3.7-33.9c-1.3-7-2.1-8.4-2.1-8.4
					l-16.1,33.7c0,0-22.9-12.1-28.2-16.3c-5.3-4.3-9.7-6.6-9.1-6.8c0.6-0.2,7.4-5.9,15.8-1.9c8.3,3.9,20,16.1,20,16.1l10.1-21
					l-9.8,7.7l-4.2-0.8c0,0-24-36.4-23.4-36.8c1-1.6,1.7-3.3,2.1-5c0.2-1,2.1-7.2,1.8-8.6c-0.4-1.4-9.9-21.6-10.5-21.6
					c-0.6,0-17.7,8.9-22.4,4.7c-4.7-4.2-6.6-11.3-6-11.7c0.6-0.4,33.4-0.2,34.2,0.4c0.8,0.6,9.7,24.3,9.7,24.3s14.3-69.3,18.9-89.4
					c1.6-0.2,3.1-0.8,4.3-1.7C385.7,294.3,386.6,293,387.2,291.5z"/>
				<path class="st17" d="M263.5,272c0,0,80.5-13.1,81.4-13.1c0.9,0,39.4-14.3,40.3-14h0.1c1.2,1.8,2.6,3.5,4,5.2
					c-14,10.8-30.9,15.2-48.1,19.5c-0.3,0-1.5-2-2.3-2c-16.6-1.5-32.4,2.3-49,4.7c-4.1,0.6-7.9,0.9-11.7,1.2
					c-5.4,0.5-10.8,1.5-16,3.2c-0.2-1.8-0.5-3.6-0.8-5.5L263.5,272z"/>
				<path class="st17" d="M403.5,314c-0.9,1.2-3.5-0.3-5.5,0.6c5.2-12,8.5-24.5,12.8-36.5c-4.2,1.1-8.5,1.9-12.8,2.3
					c-2.1,11.3-5.2,22.5-9.3,33.2c-2.3-1.2-6.4-0.6-6.4-1.8c0.2-8.3,2.2-16.8,3.9-25.2c6.4-6.5,17.5-17.4,21.6-21.9
					c0.4-0.3,0.9-0.6,1.3-0.9c2.9-1.2,5.8-2.6,8.5-4.1c3.6-2.3,7-5,10.2-7.9c0.2,0.3,0.5,0.7,0.8,1.1c-3,7.4-6.2,14.9-9.3,22.2
					C414,288.3,412,302.3,403.5,314z"/>
				<path class="st11" d="M433.8,463.6c2,0.7,3.8,1.9,5.4,3.4c1.5,1.5,2.7,3.3,3.5,5.3c0.4,3.6,0.3,5.5-0.2,5.3
					c-1.2-0.4-12.2-8.3-12.4-13c0-0.2,0-0.4,0-0.6C431.2,463.5,432.6,463.3,433.8,463.6z"/>
				<path class="st11" d="M359.7,391.8c4.7,7.6,11.1,13.1,18.4,18.7c7.6,5.8,14.3,11.1,21,16.9c-3.3,3-6.9,5.3-10.2,8l0.7-1.6
					l-9.8,7.7l-4.2-0.8c0,0-23.9-36.4-23.3-36.8c1-1.6,1.7-3.3,2.1-5c0.2-1,2.1-7.2,1.8-8.6c-0.4-1.4-9.9-21.6-10.5-21.6
					c-0.6,0-17.7,8.9-22.4,4.7c8.3-3,16.8-5.6,25.4-8.1C351.9,374.3,354.5,383.4,359.7,391.8z"/>
				<g class="st19">
					<path class="st20" d="M230.2,303.8c1.7,0,4.7-2.6,6.1,0c1.5,2.6,37.6,36.2,38.2,37.1c0.6,0.9,18.7,63.9,18.7,65.6
						s-3.2,17.8-3.2,17.8s-9.3,48.4-10.8,49.6l-25.4,20.4c0,0-6.7-14.6-11.3-25.1c5.3-19,14.9-52.9,14.9-54.8
						c0-2.6-0.6-34.7-3.5-38.5c-2.9-3.8-52.2-47.5-54.3-47.8c0,0,14.6-1.2,15.7-2.3C216.5,324.5,228.5,303.8,230.2,303.8z"/>
				</g>
				
					<radialGradient id="SVGID_00000114037597902012557180000015907371191412779417_" cx="92.6631" cy="422.8035" r="1" gradientTransform="matrix(-138.75 0 0 138.733 13035.5703 -58248.7031)" gradientUnits="userSpaceOnUse">
					<stop  offset="0" style="stop-color:#64A745"/>
					<stop  offset="1" style="stop-color:#367A3E"/>
				</radialGradient>
				<path style="fill:url(#SVGID_00000114037597902012557180000015907371191412779417_);" d="M186.3,269.1l-0.1,2v2.3l5.2,0.7
					c0,0-2.1,17.5-2.3,17.7c-0.2,0.1-4.5,10.9-4.5,10.9l-4.2,1l-3.2-28.1v-5.8c0,0-6.4,2.8-6.6,3c-0.2,0.2-0.8,5.3-0.9,5.6
					c-0.1,0.3,4.7,28.2,4.7,28.4c2.6,1.3,5.2,2.5,7.9,3.6c0,0,18.9-8.1,18.8-8.4c-0.1-0.3,1-5.8,1-6.2c0-0.4-2-25.2-2-25.2l-1.1-1.5
					L186.3,269.1z"/>
				<path class="st22" d="M173.3,283c1.2-2.4,2.6-4.7,4.2-6.9l3.1,27.4l4.2-1c0,0,4.2-10.7,4.5-10.9c0.2-0.1,0.7-4.9,1.3-9.5
					c1.7,1.2,3.3,2.5,4.7,4c2.2-2.4,4.1-5,5.7-7.8c0.6,7.3,1.4,17,1.4,17.3c0,0.2-1,5.9-1,6.2c0.1,0.3-18.8,8.4-18.8,8.4
					c-2.7-1.1-5.3-2.2-7.9-3.6c0-0.2-3.4-20.1-4.5-26.5C171.3,281.1,172.3,282.1,173.3,283z"/>
				
					<radialGradient id="SVGID_00000131352391444012021300000016658821059438327939_" cx="92.2783" cy="423.4977" r="1" gradientTransform="matrix(-330.523 0 0 330.482 30699.375 -139380.4062)" gradientUnits="userSpaceOnUse">
					<stop  offset="0" style="stop-color:#64A745"/>
					<stop  offset="1" style="stop-color:#367A3E"/>
				</radialGradient>
				<path style="fill:url(#SVGID_00000131352391444012021300000016658821059438327939_);" d="M189.4,310.3l13,41.9
					c0,0,10.8,44.3,10.6,44.8c-0.1,0.4-5.5,49-5.5,49s9.9,38.4,9.2,38.9c-0.7,0.6-12.7,13.6-12.8,13.1c-0.1-0.4-17.4-24.4-17.4-24.9
					s-3.9-32.2-3.9-32.2l2.2-5.6c0,0,4.7-2.8,4.7-3.2c-0.2-1.3-0.7-2.5-1.3-3.7c-0.4-0.3-1.6-1.2-1.5-1.6
					c0.1-0.4,11.4-31.7,11.4-31.7s-7.6-52.6-7.7-53.8s-7.1-28.3-6.7-28.3c0.4,0,0.6-2.9,0.6-2.9L189.4,310.3z"/>
				<path class="st24" d="M197.9,394.8c-0.7-4.8-7.5-52.3-7.7-53.5c-0.1-1.1-7.1-28.3-6.7-28.3c0.4,0,0.6-2.9,0.6-2.9h5.3l13,41.9
					c0,0,10.8,44.3,10.6,44.8c0,0-0.1,0.7-0.2,1.8l-10-2.8C201.1,395.6,199.5,395.2,197.9,394.8z"/>
				<path class="st24" d="M208.5,450c2.5,9.8,8.8,34.5,8.2,35c-0.6,0.5-12.7,13.6-12.8,13.1c-0.1-0.4-17.4-24.4-17.4-24.9
					s-3.2-26.1-3.9-31.3C191.2,444.7,199.9,447.3,208.5,450z"/>
				
					<radialGradient id="SVGID_00000010279048682505584220000006622285127326613154_" cx="92.7247" cy="422.6922" r="1" gradientTransform="matrix(-126.942 0 0 126.927 11935.2285 -53412.7148)" gradientUnits="userSpaceOnUse">
					<stop  offset="0" style="stop-color:#64A745"/>
					<stop  offset="1" style="stop-color:#367A3E"/>
				</radialGradient>
				<path style="fill:url(#SVGID_00000010279048682505584220000006622285127326613154_);" d="M186.5,295.1c2.4,0.4,4.8,0.9,7.1,1.5
					c0.4,0.3,2.1,1.5,2.1,2c0,0.5-1.4,14.8-2,15.1c-0.7,0.3-6.3,2.4-6.7,2.5s-9.9-2.4-9.9-2.4s-2.7-1.8-2.3-2.1
					c0.4-0.4,3.9-15.4,4.2-15.4c0.6-0.3,1.2-0.6,1.7-1.1L186.5,295.1z"/>
				<path class="st26" d="M186.5,295.1c2.4,0.4,4.8,0.9,7.1,1.5c0.4,0.3,2.1,1.5,2.1,2c0,0.5-1.4,14.8-2,15.1
					c-0.7,0.3-6.3,2.4-6.7,2.5s-9.9-2.4-9.9-2.4s-2.7-1.8-2.3-2.1c0.4-0.4,3.9-15.4,4.2-15.4c0.6-0.3,1.2-0.6,1.7-1.1L186.5,295.1z"
					/>
				
					<radialGradient id="SVGID_00000108269713418628583130000003369493534180755617_" cx="92.2161" cy="423.6101" r="1" gradientTransform="matrix(-425.8 0 0 425.747 39335.332 -180408.7031)" gradientUnits="userSpaceOnUse">
					<stop  offset="0" style="stop-color:#BB6D42"/>
					<stop  offset="0.99" style="stop-color:#65361D"/>
				</radialGradient>
				<path style="fill:url(#SVGID_00000108269713418628583130000003369493534180755617_);" d="M122.4,171.8c-0.7,0.3-28-2.2-28.7,0
					c-0.7,2.2-2.6,26.7-1.9,28.5c0.7,1.7,25.5,17.5,26.4,17.3c0.9-0.1,12.1-14.6,12.5-15.8c0.4-1.2,0-18.1,0-18.1L122.4,171.8z"/>
				
					<radialGradient id="SVGID_00000029743047786827256310000014372117423022252944_" cx="92.3583" cy="423.3535" r="1" gradientTransform="matrix(-256.796 0 0 256.764 23811.4688 -108654.9062)" gradientUnits="userSpaceOnUse">
					<stop  offset="0" style="stop-color:#E46243"/>
					<stop  offset="1" style="stop-color:#9A2E20"/>
				</radialGradient>
				<path style="fill:url(#SVGID_00000029743047786827256310000014372117423022252944_);" d="M124.9,177.5c0,0-22.9,2-23.5,2.3
					c-0.6,0.3-1.5,18.5-0.7,19c0.8,0.4,14.6,9.3,15.9,9c1.3-0.3,12.4-16.1,12.6-16.5c0.1-0.4-2.2-8.7-2.2-8.7L124.9,177.5z"/>
				
					<radialGradient id="SVGID_00000064352909841130347620000014085757305205529275_" cx="92.1752" cy="423.6839" r="1" gradientTransform="matrix(-525.162 0 0 525.096 48394.9336 -222444.0156)" gradientUnits="userSpaceOnUse">
					<stop  offset="0" style="stop-color:#BB6D42"/>
					<stop  offset="0.99" style="stop-color:#65361D"/>
				</radialGradient>
				<path style="fill:url(#SVGID_00000064352909841130347620000014085757305205529275_);" d="M94.4,83c1.6,5.9,2.8,11.9,3.5,17.9
					c-0.2,1.4,14.6,53.5,14.6,54.1c0,0.6,4.9,26.3,4.9,26.3l6.8,0.8l-2.2,8l7.2,17.8c0,0-0.6,46.4,0,47.1c1.5,1.1,3,2,4.7,2.7
					c0.8,0.4,22.4,1.5,33.5,2.1c11.1,0.7,29.4,1.4,30.2,1c0.8-0.4,14.6-14.2,14.4-16.9c-0.2-2.7-11.3-66.4-11.3-66.4
					s-20.8-48.9-33.1-79.3C155.2,68,134,40.4,134,40.4s-43.8,2.7-43.8,1.9c0-0.8-8.6-12.8-18.8-23.9C61.1,7.3,46.9-0.2,47.5,0
					c0.6,0.2,9.9,15.4,9.9,15.4s3.7,10.3,2.5,10.5c-1.2,0.2-26.8-4.7-27.6-4.5c-0.8,0.2-26.8,2.9-35.4,9.3c-8.6,6.4-9.3,9.1-8.8,9.1
					c0.6,0,34.4-6,42-6s23.8,5.2,23.8,5.2S22.2,50,21.8,51.3c-3.3,10.4-5.4,21.1-6.2,31.9c-1,16.1,0.8,24.1,0.8,24.1
					s13-25.9,14.4-27c1.4-1.2,24.1-10.7,24.1-10.7s-7.6,23.1-7.4,24.5c0.2,1.4,5.2,25.5,5.2,25.5s11.2-24.1,12.6-25.7
					c1.4-1.5,13.4-16.2,13.8-15.6c0.4,0.6-2.7,13.8-3.1,14.6c-0.4,0.8,4.3,16.3,4.5,15.6c0.2-0.8,10.1-18.3,10.1-18.3L94.4,83z"/>
				<path class="st14" d="M187.9,180c4.4,0.2,8.8,0.2,13.1,0.1c1.1,6.1,3.7,21.6,6.2,35.8c-2.8-3.8-5.8-7.6-8.8-11.4
					C193.1,197.5,191.1,188.5,187.9,180z"/>
				<path class="st14" d="M99.8,63.4c0,7.9,6.4,13.4,10.5,19.3c6.4-4.9,13.4-9.3,19.3-14.9c-1,8.1-1.4,16.3-1.2,24.5
					c-3-0.9-7.9-2.3-8.5-1.5c-6.7,14.5-9,30.4-12.5,46c-4.3-15.5-9.8-35.1-9.6-35.9c-0.7-6-1.9-12-3.5-17.8l-3.9,7.1
					c0,0-9.9,17.5-10.1,18.3c-0.7-1.2-1.2-2.4-1.5-3.7c3.5-8.7,7.2-17.2,10.6-26C91.8,73,95.3,67.7,99.8,63.4z"/>
				<path class="st14" d="M64.2,81.5c8.5-8.2,14.6-17.5,23.3-25c-3.2,7.4-6.2,14.8-9.1,22.3C76,80.9,66.4,92.5,65.2,93.9
					c-1.2,1.4-12.4,25.7-12.4,25.7l-0.1-0.6c2.5-10.9,4.9-22,7.4-33.4C60.4,84.4,62.7,82.9,64.2,81.5z"/>
				<path class="st14" d="M68,55.5c-6.5,3.7-10.9,9.4-15.4,15.1c-5.8,2.4-20.7,8.8-21.8,9.7c-1.4,1.2-14.4,27-14.4,27
					s-1.8-8-0.8-24.1c0.8-10.3,2.7-20.5,5.7-30.3c2.6,3.6,4.8,7.5,6.7,11.6C40.8,59.3,54.8,58.7,68,55.5z"/>
				<path class="st17" d="M21.3,52.9l0.2-0.6c6.5-1,12.9-2,19.6-3.2c7.5-1.2,14.9-1.7,22.1-2.2c-7.4,4.5-14.9,8.8-22,13.7
					c-4.5,0.9-9,2.3-13.2,4C26.2,60.4,23.9,56.5,21.3,52.9z"/>
				<path class="st17" d="M47.6,0c1.3,0.8,14.2,7.9,23.9,18.2c5.4,5.8,10.4,11.9,13.8,16.5c-9.5-8.1-19.4-15.6-29.7-22.6
					C52.8,8,48.3,0.8,47.6,0z"/>
				<path class="st17" d="M131.2,40.4c-9.6,8.3-19.3,17.1-23.8,29c0-6.7-0.9-13.4,1.5-19.8C101,59.9,87.3,66,82.9,78.2
					c-1.2-0.5-2.5-0.9-3.7-1.3c2.6-6.9,5.3-13.8,8.3-20.6C78.8,64,72.7,73.4,64.2,81.5c-0.9,0.9-2.1,1.8-3,2.6
					c-2.6-3.4-5-6.9-7.9-9.9l1.5-4.6l-2.3,1c4.5-5.7,8.9-11.4,15.4-15.1c-0.7,0.2-1.4,0.3-2.1,0.5c4.5-3.2,8.7-6.7,13.4-9.7
					c3.6-1.5,7.3-2.8,11-4.1C90.5,42.8,121.5,41,131.2,40.4z"/>
				<path class="st17" d="M-3.1,30.7c8.6-6.4,34.6-9.1,35.4-9.3c0.8-0.2,23.2,4,27.1,4.5c0.5,2,1.3,3.9,2.2,5.7
					c-9.6,0-19-2.6-28.6-3c-13.1-0.8-26,1.3-38.9,4.3C-5.1,32.2-4.1,31.5-3.1,30.7z"/>
				
					<radialGradient id="SVGID_00000082361382743660801090000013702957863386764729_" cx="92.494" cy="423.1086" r="1" gradientTransform="matrix(-186.248 0 0 186.224 17613.9707 -78230.2188)" gradientUnits="userSpaceOnUse">
					<stop  offset="0" style="stop-color:#CCCBD1"/>
					<stop  offset="0.88" style="stop-color:#89878A"/>
				</radialGradient>
				<path style="fill:url(#SVGID_00000082361382743660801090000013702957863386764729_);" d="M432.1,436.5c-1.1,1.1-2.1,2.3-3.1,3.5
					h-0.1c-1.3-0.7-21.1-8.2-26.5-10.2c-0.5-0.7-1-1.5-1.5-2.3C411.1,431.5,421.3,435.3,432.1,436.5z"/>
				<path class="st11" d="M380.4,463.5c-3.7-2-22.8-12.2-27.6-16c-5.2-4.3-9.7-6.6-9.1-6.8c1.8-1.2,3.8-2.2,5.9-2.8
					c10,7.7,20.4,14.8,31.2,21.3C381.5,459.5,381,461.6,380.4,463.5z"/>
				<path class="st11" d="M413.3,475.8c0,0.4,0,0.7,0,0.7s-29.4,14.6-30.5,12.6c-1.2-1.9-2.6-10.2,0.6-13.2c0.9,1.3,1.6,2.8,2,4.3
					C394.5,477.5,403.9,477.3,413.3,475.8z"/>
				<g class="st19">
					<path class="st20" d="M136.8,168.6c0.8-0.8,26.1-32.7,26.8-32.5c0.8,0.2,12.4,30,12.6,30.9c0.2,1,9.5,26.1,8.7,27.2
						c-0.8,1-6.6,10.6-6.6,11.2s11.5,38.2,11.5,38.2l-42.4,9.3c0,0-13.6-8.3-18.6-11.4c0-13.9,0.3-33.6,0.3-33.6l-7.2-17.8l2.1-8
						l-6.8-0.8c0,0-4.3-22.6-4.8-25.9C122.4,161.1,136.2,169.1,136.8,168.6z"/>
				</g>
				<path class="st17" d="M144.7,183.8c-6.8-0.9-13.7-1.1-20.7-1.5l0.1-0.4l-6.8-0.8c0,0-2.5-12.9-3.9-20.6c8,3.6,16,7.1,24.3,10.1
					c9.3-7.8,17.6-16.8,24.6-26.7c2.2,8.3,6,16.3,8.7,24.7C162.2,173.6,153.8,179.2,144.7,183.8z"/>
				<path class="st17" d="M146.7,220.3c5.6,0.3,11.7-3.8,17.5-5.5c4.7,8.8,12.4,14.7,18.9,21.9c-14.7-1.1-29.3-5.1-44-6.5
					c-3.3,2.4-6.8,4.6-10.3,6.7c0-7.4,0.1-15.6,0.2-21.4c1-0.9,2.1-1.7,3.1-2.6C136.8,215.9,142.1,219.8,146.7,220.3z"/>
				
					<radialGradient id="SVGID_00000110455865354028032100000005873447408340861089_" cx="92.3582" cy="423.3535" r="1" gradientTransform="matrix(-256.811 0 0 256.779 23812.8516 -108661.2734)" gradientUnits="userSpaceOnUse">
					<stop  offset="0" style="stop-color:#E46243"/>
					<stop  offset="1" style="stop-color:#9A2E20"/>
				</radialGradient>
				<path style="fill:url(#SVGID_00000110455865354028032100000005873447408340861089_);" d="M148.4,216.4c0,0,18.2-6.1,18.4-6.7
					c0.1-1.4,0.1-2.8,0-4.2c0,0-19.1-2.1-20.4-1.3c-1.3,0.7-11.8,4.7-11.8,4.7l1.2,3.6L148.4,216.4z"/>
				<path class="st17" d="M144.4,211.6c-3.2-0.1-6.4-0.6-9.5-1.5l-0.4-1.3c0,0,10.5-4,11.8-4.7c1.3-0.7,14.7,0.7,19.1,1.2
					C158.5,208.6,151.5,211.8,144.4,211.6z"/>
				
					<radialGradient id="SVGID_00000106141562457424592220000004982494717300015253_" cx="92.3836" cy="423.3077" r="1" gradientTransform="matrix(-239.82 0 0 239.79 22261.3535 -101501.1562)" gradientUnits="userSpaceOnUse">
					<stop  offset="0" style="stop-color:#BB6D42"/>
					<stop  offset="0.99" style="stop-color:#65361D"/>
				</radialGradient>
				<path style="fill:url(#SVGID_00000106141562457424592220000004982494717300015253_);" d="M171.6,239.7c-1-0.1-31.9-5.7-32.5-5.7
					c-0.6,0-6.3,3.5-5.5,3.5S171.6,239.7,171.6,239.7z"/>
				
					<radialGradient id="SVGID_00000059990600168479555310000005580321575553264273_" cx="92.3839" cy="423.3073" r="1" gradientTransform="matrix(-239.671 0 0 239.641 22247.5859 -101437.8516)" gradientUnits="userSpaceOnUse">
					<stop  offset="0" style="stop-color:#BB6D42"/>
					<stop  offset="0.99" style="stop-color:#65361D"/>
				</radialGradient>
				<path style="fill:url(#SVGID_00000059990600168479555310000005580321575553264273_);" d="M162.7,196.6c0.1-0.9,0-4.7,0-4.7
					s-3.1-2.3-3.7-2.2c-1.2,0.7-2.4,1.5-3.5,2.3c0,0,2.3,7.4,2.8,7.3C158.7,199.2,162.7,196.6,162.7,196.6z"/>
				
					<radialGradient id="SVGID_00000032643306039498987880000013835939641065647776_" cx="92.3841" cy="423.3069" r="1" gradientTransform="matrix(-239.538 0 0 239.507 22235.4219 -101380.9453)" gradientUnits="userSpaceOnUse">
					<stop  offset="0" style="stop-color:#BB6D42"/>
					<stop  offset="0.99" style="stop-color:#65361D"/>
				</radialGradient>
				<path style="fill:url(#SVGID_00000032643306039498987880000013835939641065647776_);" d="M135.4,199.3c1.2-0.1,2.3-0.1,3.5,0
					v-5.8l-3.5-2.8c0,0-3,1.6-2.8,1.9C132.8,192.9,135.4,199.3,135.4,199.3z"/>
				
					<radialGradient id="SVGID_00000091695743604158725100000007099667836556334754_" cx="92.3837" cy="423.3075" r="1" gradientTransform="matrix(-239.746 0 0 239.716 22254.5293 -101469.7109)" gradientUnits="userSpaceOnUse">
					<stop  offset="0" style="stop-color:#BB6D42"/>
					<stop  offset="0.99" style="stop-color:#65361D"/>
				</radialGradient>
				<path style="fill:url(#SVGID_00000091695743604158725100000007099667836556334754_);" d="M116.9,182.7c0,0,23.5,6.6,23.9,6.1
					c0.4-0.4,2.6-4.1,2.6-4.1l4.5,5l7.7-3.5l17.7-13l-2.5-7.7l-27,16.5l-1.6-1.2l-25.8-4.6L116.9,182.7z"/>
				
					<radialGradient id="SVGID_00000012431934848241125690000013005706223725764510_" cx="92.216" cy="423.6101" r="1" gradientTransform="matrix(-425.845 0 0 425.792 39339.457 -180427.7969)" gradientUnits="userSpaceOnUse">
					<stop  offset="0" style="stop-color:#BB6D42"/>
					<stop  offset="0.99" style="stop-color:#65361D"/>
				</radialGradient>
				<path style="fill:url(#SVGID_00000012431934848241125690000013005706223725764510_);" d="M184.7,163
					c0.4-0.4,26.4-27.4,27.1-26.9c0.7,0.5,19.3,16.5,20.4,18.6c1.1,2-5.7,42-6.7,42.3c-1,0.3-33.1-9.6-33.1-9.6L184.7,163z"/>
				<path class="st14" d="M195.5,186.8c9,1.5,17.8,2.6,26.8,3.2c2.3-12.3,6.6-23.9,9.5-35.8c0.2,0.2,0.3,0.4,0.4,0.5
					c1.2,2-5.7,42-6.7,42.3c-1,0.3-33.1-9.6-33.1-9.6l-0.4-1.1C193.2,186.4,194.3,186.6,195.5,186.8z"/>
				
					<radialGradient id="SVGID_00000126313520604895639840000009822406447480915887_" cx="92.3583" cy="423.3535" r="1" gradientTransform="matrix(-256.796 0 0 256.764 23811.4844 -108654.9219)" gradientUnits="userSpaceOnUse">
					<stop  offset="0" style="stop-color:#E46243"/>
					<stop  offset="1" style="stop-color:#9A2E20"/>
				</radialGradient>
				<path style="fill:url(#SVGID_00000126313520604895639840000009822406447480915887_);" d="M186.5,168.6c0,0,23-15.2,24.1-14.9
					c2,1.4,3.8,3.2,5.2,5.3c0.1,0.7-3,21.7-4.5,21.7c-1.6,0-21.4-1.5-21.4-1.5L186.5,168.6z"/>
			</g>
		</g>
	</g>
</g>
</svg>
