<?xml version="1.0" encoding="utf-8"?>
<!-- Generator: Adobe Illustrator 26.0.2, SVG Export Plug-In . SVG Version: 6.00 Build 0)  -->
<svg version="1.1" id="Camada_1" xmlns="http://www.w3.org/2000/svg" xmlns:xlink="http://www.w3.org/1999/xlink" x="0px" y="0px"
	 viewBox="0 0 755 329" style="enable-background:new 0 0 755 329;" xml:space="preserve">
<style type="text/css">
	.st0{fill:#FFFFFF;}
	.st1{opacity:0.53;fill:#FFFFFF;enable-background:new    ;}
	.st2{clip-path:url(#SVGID_00000078745503937335595260000000477854094123690883_);}
	.st3{clip-path:url(#SVGID_00000103950218845551961370000016048528330866369185_);}
</style>
<path class="st0" d="M318.3,20.1l-3.8,1l-0.1-10.7l14.2-4v42.8h-10.4V20.1z M337.8,49.3c-1.7,0-3.2-0.6-4.4-1.8
	c-1.2-1.3-1.8-2.7-1.8-4.3c0-1.6,0.6-3,1.8-4.2c1.2-1.3,2.7-1.9,4.4-1.9c1.8,0,3.2,0.6,4.3,1.8c1.2,1.2,1.8,2.6,1.8,4.3
	c0,1.7-0.6,3.1-1.8,4.3C340.9,48.7,339.5,49.3,337.8,49.3z M368.5,6.4h15.3c3.9,0,7,1.2,9.2,3.6c2.2,2.3,3.4,5.6,3.4,9.7
	c0,2.3-0.3,4.3-0.8,6c-0.5,1.7-1.2,2.9-2.1,3.8c1.5,1.3,2.2,4,2.2,8v11.9h-11.9v-9.6c0-1.3-0.1-2.3-0.4-2.9c-0.2-0.6-0.7-1-1.6-1
	h-1.7v13.5h-11.6V6.4z M381.8,27c0.8,0,1.4-0.3,1.6-1c0.3-0.7,0.5-2.2,0.5-4.5c0-1.8-0.1-3.2-0.2-4c-0.1-0.9-0.3-1.5-0.6-1.8
	c-0.3-0.3-0.6-0.5-1.2-0.5l-1.8,0.1V27H381.8z M398.8,6.4h23.5v12.4h-14.3v3.5h13.6v11.5h-13.6v3.5h14.3v11.9h-23.5V6.4z
	 M435.7,49.6c-3.4,0-6.1-1.1-8.2-3.2c-2-2.2-3-5.2-3-9.2V18.4c0-2.6,0.6-4.8,1.9-6.7c1.3-1.9,3-3.4,5.1-4.3c2.2-1,4.5-1.6,6.9-1.6
	c2.4,0,4.6,0.5,6.7,1.5c2.1,1,3.7,2.4,4.9,4.3c1.2,1.9,1.8,4.2,1.8,6.7v4.2h-11.7v-5.8c0-0.7-0.2-1.3-0.5-1.7
	c-0.3-0.4-0.8-0.6-1.4-0.6c-0.6,0-1,0.2-1.4,0.6c-0.4,0.4-0.6,0.9-0.6,1.6v21.8c0,0.7,0.2,1.2,0.5,1.6c0.4,0.4,0.9,0.6,1.4,0.6
	c0.5,0,1-0.2,1.4-0.5c0.4-0.4,0.6-1,0.6-1.7v-3.8h-1.2V24.3H452v25H442v-2.9C440.7,48.5,438.6,49.6,435.7,49.6z M454.3,6.4h11.5
	v42.8h-11.5V6.4z M482,49.9c-2.4,0-4.6-0.5-6.6-1.6c-2-1.1-3.6-2.6-4.7-4.5s-1.8-4.1-1.8-6.6v-2.9h11.6v4.7c0,0.6,0.2,1.1,0.6,1.5
	c0.4,0.3,0.8,0.5,1.3,0.5c1.3,0,1.9-0.6,1.9-1.9v-3.8c0-1-0.2-1.7-0.7-2.1c-0.4-0.5-1.2-0.8-2.2-0.8c-3.7-0.1-6.9-1.1-9.4-2.9
	c-2.5-1.8-3.8-4.7-3.8-8.6v-2.5c0-2.6,0.6-4.8,1.8-6.7c1.3-1.9,2.9-3.4,4.9-4.4c2.1-1,4.3-1.6,6.7-1.6c2.3,0,4.5,0.5,6.5,1.6
	c2.1,1,3.7,2.4,5,4.3c1.3,1.9,1.9,4.1,1.9,6.7v3.1h-11.5v-4.9c0-0.7-0.2-1.2-0.6-1.6c-0.3-0.4-0.8-0.6-1.3-0.6c-0.6,0-1,0.2-1.4,0.5
	c-0.3,0.3-0.5,0.9-0.5,1.6v3.3c0,1.3,0.3,2.1,1,2.6c0.6,0.4,1.7,0.7,3.2,0.8c3.5,0.1,6.4,1,8.6,2.7c2.2,1.7,3.3,4.3,3.3,8v3.3
	c0,2.5-0.6,4.7-1.9,6.7c-1.2,1.9-2.9,3.4-5,4.4C486.8,49.4,484.5,49.9,482,49.9z M504.2,18.5h-7.1V6.4h25.6v12.1h-7.1v30.8h-11.5
	V18.5z M525.1,6.4h23.5v12.4h-14.3v3.5H548v11.5h-13.6v3.5h14.3v11.9h-23.5V6.4z M551,6.4h15.3c3.9,0,7,1.2,9.2,3.6
	c2.2,2.3,3.4,5.6,3.4,9.7c0,2.3-0.3,4.3-0.8,6c-0.5,1.7-1.2,2.9-2.1,3.8c1.5,1.3,2.2,4,2.2,8v11.9h-11.9v-9.6c0-1.3-0.1-2.3-0.4-2.9
	c-0.2-0.6-0.7-1-1.6-1h-1.7v13.5H551V6.4z M564.2,27c0.8,0,1.4-0.3,1.6-1c0.3-0.7,0.5-2.2,0.5-4.5c0-1.8-0.1-3.2-0.2-4
	c-0.1-0.9-0.3-1.5-0.6-1.8c-0.3-0.3-0.6-0.5-1.2-0.5l-1.8,0.1V27H564.2z"/>
<path class="st0" d="M26.7,180.2c0-3.8,1.1-6.8,3.2-9c2.2-2.2,5.3-3.8,9.5-4.7c1-0.2,1.6-0.5,2-0.7c0.4-0.3,0.6-0.6,0.8-1.2
	c0.1-0.5,0.2-1.4,0.2-2.5v-1.3c0-1-0.2-1.6-0.7-2c-0.4-0.4-1.2-0.6-2.3-0.6c-1.1,0-1.9,0.2-2.4,0.7c-0.4,0.4-0.6,1.1-0.6,2.1v3.6
	H25.8v-4.2c0-2.6,0.6-4.8,1.8-6.7c1.2-1.9,2.8-3.4,4.9-4.3c2.1-1,4.4-1.6,6.9-1.6c4,0,7.2,1.1,9.7,3.2c2.5,2.1,3.8,5.1,3.8,9v2.6
	c0,3.7-1,6.8-3,9.3c-2,2.5-4.7,4.1-8.2,4.8c-1.3,0.3-2.3,0.5-3,0.8c-0.6,0.3-1,0.6-1.2,0.9c-0.2,0.3-0.3,0.7-0.3,1.3v1.1h14.5v10.4
	H26.7V180.2z M61.3,191.2c-1.7,0-3.2-0.6-4.4-1.8c-1.2-1.3-1.8-2.7-1.8-4.3c0-1.6,0.6-3,1.8-4.2c1.2-1.3,2.7-1.9,4.4-1.9
	c1.8,0,3.2,0.6,4.3,1.8c1.2,1.2,1.8,2.6,1.8,4.3c0,1.7-0.6,3.1-1.8,4.3C64.4,190.6,63,191.2,61.3,191.2z M105.8,191.9
	c-2.3,0-4.5-0.5-6.7-1.5c-2.2-1-3.9-2.4-5.3-4.3c-1.3-1.9-2-4.2-2-6.7v-18.9c0-2.6,0.7-4.8,2-6.7c1.4-1.9,3.2-3.4,5.3-4.3
	c2.2-1,4.4-1.5,6.7-1.5c2.2,0,4.4,0.5,6.4,1.5c2.1,1,3.8,2.4,5.1,4.3c1.3,1.9,1.9,4.2,1.9,6.7v7.5h-11.9v-9.4c0-0.6-0.2-1.1-0.5-1.4
	c-0.3-0.3-0.7-0.5-1.2-0.5c-0.5,0-1,0.2-1.4,0.6c-0.3,0.3-0.5,0.8-0.5,1.4v22.8c0,0.6,0.2,1.1,0.5,1.5c0.3,0.3,0.8,0.5,1.3,0.5
	c0.5,0,1-0.2,1.3-0.5c0.3-0.3,0.5-0.8,0.5-1.4v-10.4h11.9v8.4c0,2.6-0.6,4.8-1.9,6.7c-1.3,1.9-3,3.4-5.1,4.3
	C110.2,191.4,108.1,191.9,105.8,191.9z M135.6,191.9c-2.3,0-4.6-0.5-6.7-1.5c-2.2-1-3.9-2.4-5.3-4.3c-1.3-1.9-2-4.2-2-6.7v-18.9
	c0-2.6,0.7-4.8,2-6.7c1.3-1.9,3.1-3.4,5.3-4.3c2.2-1,4.4-1.5,6.7-1.5c2.3,0,4.5,0.5,6.5,1.5c2.1,1,3.7,2.4,5,4.3
	c1.3,1.9,1.9,4.2,1.9,6.7v18.9c0,2.6-0.6,4.8-1.9,6.7c-1.3,1.9-2.9,3.4-5,4.3C140,191.4,137.9,191.9,135.6,191.9z M133.4,181
	c0,1.4,0.6,2.1,1.9,2.1s1.9-0.7,1.9-2.1v-22.3c0-1.5-0.6-2.3-1.9-2.3c-0.6,0-1.1,0.2-1.4,0.6c-0.3,0.4-0.5,0.9-0.5,1.6V181z
	 M151.3,148.4h15.2l4.3,24.8h0.4v-24.8h11.5v42.8h-15.1l-4.3-22.6h-0.5v22.6h-11.6V148.4z M185.1,148.4h15.2l4.3,24.8h0.4v-24.8
	h11.5v42.8h-15.1l-4.3-22.6h-0.5v22.6h-11.6V148.4z M219,148.4h23.5v12.4h-14.3v3.5h13.6v11.5h-13.6v3.5h14.3v11.9H219V148.4z
	 M258.7,191.9c-2.3,0-4.5-0.5-6.7-1.5c-2.2-1-3.9-2.4-5.3-4.3c-1.3-1.9-2-4.2-2-6.7v-18.9c0-2.6,0.7-4.8,2-6.7
	c1.4-1.9,3.2-3.4,5.3-4.3c2.2-1,4.4-1.5,6.7-1.5c2.2,0,4.4,0.5,6.4,1.5c2.1,1,3.8,2.4,5.1,4.3c1.3,1.9,1.9,4.2,1.9,6.7v7.5h-11.9
	v-9.4c0-0.6-0.2-1.1-0.5-1.4c-0.3-0.3-0.7-0.5-1.2-0.5c-0.5,0-1,0.2-1.4,0.6c-0.3,0.3-0.5,0.8-0.5,1.4v22.8c0,0.6,0.2,1.1,0.5,1.5
	c0.3,0.3,0.8,0.5,1.3,0.5s1-0.2,1.3-0.5c0.3-0.3,0.5-0.8,0.5-1.4v-10.4h11.9v8.4c0,2.6-0.6,4.8-1.9,6.7c-1.3,1.9-3,3.4-5.1,4.3
	C263.1,191.4,260.9,191.9,258.7,191.9z M281,160.5h-7.1v-12.1h25.6v12.1h-7.1v30.8H281V160.5z"/>
<path class="st0" d="M425.3,248.2c-2.6,0-5-0.5-7.2-1.6c-2.1-1.1-3.8-2.6-5-4.5c-1.2-1.9-1.8-4.1-1.8-6.6v-4h10.4v3.1
	c0,1,0.3,1.7,0.8,2.3c0.6,0.6,1.4,0.8,2.6,0.8c2.1,0,3.2-0.9,3.2-2.7v-1.6c0-1.1-0.2-1.9-0.6-2.5c-0.4-0.5-1-0.8-1.9-0.8h-1.1v-8.8
	h1.2c1.6,0,2.4-0.9,2.4-2.6v-1.3c0-0.8-0.3-1.5-0.8-1.9c-0.5-0.5-1.3-0.7-2.4-0.7c-1.3,0-2.1,0.3-2.7,0.8c-0.5,0.5-0.8,1.3-0.8,2.3
	v1.6h-10.4v-2.4c0-2.4,0.6-4.6,1.7-6.5c1.2-1.9,2.8-3.5,4.9-4.5c2.1-1.1,4.6-1.6,7.4-1.6c3.9,0,7.1,1.1,9.5,3.2
	c2.5,2.1,3.8,4.8,3.9,8.3l0.1,2.1c0,3.9-0.8,6.7-2.7,8.4c0.7,0.6,1.3,1.6,1.9,3.1c0.6,1.4,0.8,2.9,0.8,4.5l-0.1,2.1
	c-0.1,2.3-0.7,4.4-1.9,6.2c-1.2,1.8-2.7,3.2-4.7,4.3C430.2,247.6,427.9,248.2,425.3,248.2z M447.4,247.6c-1.7,0-3.2-0.6-4.4-1.8
	c-1.2-1.3-1.8-2.7-1.8-4.3c0-1.6,0.6-3,1.8-4.2c1.2-1.3,2.7-1.9,4.4-1.9c1.8,0,3.2,0.6,4.3,1.8c1.2,1.2,1.8,2.6,1.8,4.3
	c0,1.7-0.6,3.1-1.8,4.3C450.5,247,449,247.6,447.4,247.6z M477.9,204.8h11.5v32.5h8.1v10.3h-19.7V204.8z M509.7,204.8H522l9.7,42.8
	h-11.9l-1.7-8.4h-5l-1.5,8.4h-11.9L509.7,204.8z M517.5,228.9L516,218h-0.6l-1.6,10.9H517.5z M545.2,248.3c-2.3,0-4.5-0.5-6.6-1.5
	c-2.1-1-3.8-2.5-5.1-4.4c-1.3-1.9-1.9-4.2-1.9-6.7v-30.8H543v33c0,0.7,0.2,1.3,0.5,1.7c0.4,0.3,0.9,0.5,1.5,0.5c0.6,0,1-0.2,1.4-0.5
	c0.4-0.4,0.6-1,0.6-1.7l-0.1-33h11.7l0.1,30.9c0,2.5-0.6,4.7-1.9,6.7c-1.3,1.9-3,3.4-5.1,4.4C549.6,247.8,547.4,248.3,545.2,248.3z
	 M561,204.8h15.2l4.3,24.8h0.4v-24.8h11.5v42.8h-15.1l-4.3-22.6h-0.5v22.6H561V204.8z M608.8,248.3c-2.3,0-4.5-0.5-6.7-1.5
	c-2.2-1-3.9-2.4-5.3-4.3c-1.3-1.9-2-4.2-2-6.7v-18.9c0-2.6,0.7-4.8,2-6.7c1.4-1.9,3.2-3.4,5.3-4.3c2.2-1,4.4-1.5,6.7-1.5
	c2.2,0,4.4,0.5,6.4,1.5c2.1,1,3.8,2.4,5.1,4.3s1.9,4.2,1.9,6.7v7.5h-11.9v-9.4c0-0.6-0.2-1.1-0.5-1.4c-0.3-0.3-0.7-0.5-1.2-0.5
	c-0.5,0-1,0.2-1.4,0.6c-0.3,0.3-0.5,0.8-0.5,1.4v22.8c0,0.6,0.2,1.1,0.5,1.5s0.8,0.5,1.3,0.5c0.5,0,1-0.2,1.3-0.5
	c0.3-0.3,0.5-0.8,0.5-1.4v-10.4h11.9v8.4c0,2.6-0.6,4.8-1.9,6.7c-1.3,1.9-3,3.4-5.1,4.3C613.2,247.8,611.1,248.3,608.8,248.3z
	 M624.6,204.8h11.6V221h3.6v-16.2h11.5v42.8h-11.5v-16.3h-3.6v16.3h-11.6V204.8z"/>
<path class="st1" d="M390.8,125.6h-4.4v-2.1h11.2v2.1h-4.4v11.1h-2.4V125.6z M404.9,126.5c1.3,0,2.3,0.4,3,1.1
	c0.8,0.7,1.1,1.8,1.1,3.3v5.8h-2.4v-5.5c0-0.9-0.2-1.5-0.6-2c-0.4-0.5-1-0.7-1.8-0.7c-0.9,0-1.5,0.3-2,0.8c-0.5,0.5-0.8,1.3-0.8,2.2
	v5.1h-2.4v-14h2.4v5.1c0.4-0.4,0.9-0.7,1.4-0.9C403.5,126.7,404.2,126.5,404.9,126.5z M421.6,131.7c0,0.2,0,0.4,0,0.7h-7.9
	c0.1,0.7,0.5,1.3,1.1,1.8c0.6,0.4,1.3,0.6,2.2,0.6c1.1,0,2-0.4,2.7-1.1l1.3,1.4c-0.5,0.5-1,0.9-1.7,1.2c-0.7,0.3-1.5,0.4-2.3,0.4
	c-1.1,0-2.1-0.2-2.9-0.7c-0.8-0.4-1.5-1-2-1.8c-0.5-0.8-0.7-1.7-0.7-2.7c0-1,0.2-1.9,0.7-2.6c0.5-0.8,1.1-1.4,1.9-1.8
	c0.8-0.4,1.7-0.7,2.7-0.7c1,0,1.8,0.2,2.6,0.7c0.8,0.4,1.4,1,1.8,1.8C421.4,129.8,421.6,130.7,421.6,131.7z M416.5,128.4
	c-0.8,0-1.4,0.2-1.9,0.7c-0.5,0.4-0.8,1-0.9,1.8h5.7c-0.1-0.7-0.4-1.3-0.9-1.8C417.9,128.7,417.3,128.4,416.5,128.4z M433.1,124.5
	c-1,0-1.5,0.5-1.5,1.6v0.6h2.8v1.9h-2.7v8.1h-2.4v-8.1h-1.7v-1.9h1.7v-0.6c0-1.1,0.3-1.9,0.9-2.5c0.6-0.6,1.5-0.9,2.7-0.9
	c0.9,0,1.6,0.2,2.1,0.5l-0.7,1.8C434,124.7,433.6,124.5,433.1,124.5z M445.7,126.7v10h-2.2v-1.3c-0.4,0.5-0.8,0.8-1.4,1.1
	c-0.6,0.2-1.2,0.4-1.8,0.4c-1.3,0-2.4-0.4-3.2-1.1c-0.8-0.8-1.1-1.9-1.1-3.3v-5.7h2.4v5.4c0,0.9,0.2,1.6,0.6,2
	c0.4,0.4,1,0.7,1.7,0.7c0.8,0,1.5-0.3,2-0.8c0.5-0.5,0.8-1.3,0.8-2.3v-5.1H445.7z M454.5,126.5c1.3,0,2.3,0.4,3,1.1s1.1,1.8,1.1,3.3
	v5.8h-2.4v-5.5c0-0.9-0.2-1.5-0.6-2c-0.4-0.5-1-0.7-1.8-0.7c-0.9,0-1.5,0.3-2,0.8c-0.5,0.5-0.8,1.3-0.8,2.2v5.1h-2.4v-10h2.2v1.3
	c0.4-0.5,0.9-0.8,1.5-1.1C453.1,126.7,453.7,126.5,454.5,126.5z M471.6,122.7v14h-2.3v-1.3c-0.4,0.5-0.9,0.8-1.4,1.1
	c-0.6,0.2-1.2,0.4-1.9,0.4c-1,0-1.8-0.2-2.6-0.6c-0.8-0.4-1.4-1-1.8-1.8c-0.4-0.8-0.7-1.7-0.7-2.7c0-1,0.2-1.9,0.7-2.7
	c0.4-0.8,1-1.4,1.8-1.8c0.8-0.4,1.6-0.6,2.6-0.6c0.7,0,1.3,0.1,1.8,0.3c0.6,0.2,1,0.6,1.4,1v-5.2H471.6z M466.3,134.8
	c0.6,0,1.1-0.1,1.5-0.4c0.5-0.3,0.8-0.6,1.1-1.1c0.3-0.5,0.4-1,0.4-1.7c0-0.6-0.1-1.2-0.4-1.7c-0.3-0.5-0.6-0.8-1.1-1.1
	c-0.5-0.3-1-0.4-1.5-0.4c-0.6,0-1.1,0.1-1.5,0.4c-0.5,0.3-0.8,0.6-1.1,1.1c-0.3,0.5-0.4,1-0.4,1.7c0,0.6,0.1,1.2,0.4,1.7
	c0.3,0.5,0.6,0.8,1.1,1.1C465.2,134.7,465.7,134.8,466.3,134.8z M476.9,128.1c0.7-1.1,1.9-1.6,3.6-1.6v2.2c-0.2,0-0.4-0.1-0.5-0.1
	c-0.9,0-1.6,0.3-2.1,0.8c-0.5,0.5-0.8,1.3-0.8,2.3v4.9h-2.4v-10h2.2V128.1z M486.2,126.5c1.5,0,2.6,0.4,3.4,1.1
	c0.8,0.7,1.2,1.8,1.2,3.2v5.9h-2.2v-1.2c-0.3,0.4-0.7,0.8-1.2,1c-0.5,0.2-1.2,0.3-1.9,0.3c-0.8,0-1.4-0.1-2-0.4
	c-0.6-0.3-1-0.6-1.3-1.1c-0.3-0.5-0.5-1-0.5-1.6c0-0.9,0.3-1.6,1-2.2c0.7-0.6,1.7-0.8,3.2-0.8h2.6v-0.2c0-0.7-0.2-1.2-0.6-1.6
	c-0.4-0.4-1-0.6-1.9-0.6c-0.6,0-1.1,0.1-1.7,0.3c-0.5,0.2-1,0.4-1.4,0.7l-0.9-1.7c0.5-0.4,1.2-0.7,1.9-0.9
	C484.6,126.7,485.4,126.5,486.2,126.5z M485.9,135.1c0.6,0,1.1-0.1,1.6-0.4c0.5-0.3,0.8-0.7,1-1.2v-1.2H486c-1.4,0-2,0.4-2,1.3
	c0,0.4,0.2,0.8,0.5,1S485.3,135.1,485.9,135.1z M493.8,126.7h2.4v10h-2.4V126.7z M495,125c-0.4,0-0.8-0.1-1.1-0.4
	c-0.3-0.3-0.4-0.6-0.4-1s0.1-0.7,0.4-1c0.3-0.3,0.6-0.4,1.1-0.4c0.4,0,0.8,0.1,1.1,0.4c0.3,0.3,0.4,0.6,0.4,1c0,0.4-0.1,0.8-0.4,1.1
	C495.8,124.9,495.5,125,495,125z M502.4,136.8c-0.8,0-1.6-0.1-2.4-0.3c-0.8-0.2-1.4-0.5-1.9-0.8l0.9-1.8c0.5,0.3,1,0.5,1.6,0.7
	c0.6,0.2,1.3,0.3,1.9,0.3c1.4,0,2.1-0.4,2.1-1.1c0-0.4-0.2-0.6-0.5-0.7c-0.4-0.1-0.9-0.3-1.7-0.4c-0.8-0.1-1.5-0.3-2-0.4
	c-0.5-0.2-1-0.4-1.4-0.8c-0.4-0.4-0.6-1-0.6-1.7c0-1,0.4-1.7,1.2-2.3c0.8-0.6,1.9-0.9,3.2-0.9c0.7,0,1.4,0.1,2.1,0.2
	c0.7,0.2,1.3,0.4,1.7,0.6l-0.9,1.8c-0.9-0.5-1.8-0.8-2.9-0.8c-0.7,0-1.2,0.1-1.6,0.3c-0.4,0.2-0.5,0.5-0.5,0.8
	c0,0.4,0.2,0.6,0.6,0.8c0.4,0.2,1,0.3,1.8,0.4c0.8,0.1,1.5,0.3,2,0.4c0.5,0.2,1,0.4,1.3,0.8c0.4,0.4,0.6,0.9,0.6,1.7
	c0,0.9-0.4,1.7-1.2,2.3C504.9,136.5,503.8,136.8,502.4,136.8z M508.9,126.7h2.4v10h-2.4V126.7z M510.1,125c-0.4,0-0.8-0.1-1.1-0.4
	c-0.3-0.3-0.4-0.6-0.4-1s0.1-0.7,0.4-1c0.3-0.3,0.6-0.4,1.1-0.4c0.4,0,0.8,0.1,1.1,0.4c0.3,0.3,0.4,0.6,0.4,1c0,0.4-0.1,0.8-0.4,1.1
	C510.9,124.9,510.6,125,510.1,125z M520.1,126.5c1.3,0,2.3,0.4,3,1.1c0.8,0.7,1.1,1.8,1.1,3.3v5.8h-2.4v-5.5c0-0.9-0.2-1.5-0.6-2
	c-0.4-0.5-1-0.7-1.8-0.7c-0.9,0-1.5,0.3-2,0.8c-0.5,0.5-0.8,1.3-0.8,2.2v5.1h-2.4v-10h2.2v1.3c0.4-0.5,0.9-0.8,1.5-1.1
	C518.7,126.7,519.3,126.5,520.1,126.5z M537.3,126.7v8.5c0,3.5-1.8,5.3-5.4,5.3c-1,0-1.9-0.1-2.7-0.4c-0.9-0.2-1.6-0.6-2.1-1.1
	l1.1-1.8c0.4,0.4,1,0.7,1.7,0.9c0.7,0.2,1.4,0.3,2,0.3c1.1,0,1.9-0.3,2.4-0.8c0.5-0.5,0.8-1.3,0.8-2.3v-0.5c-0.4,0.4-0.9,0.8-1.5,1
	c-0.6,0.2-1.2,0.3-1.9,0.3c-1,0-1.8-0.2-2.6-0.6c-0.8-0.4-1.4-1-1.8-1.7c-0.4-0.7-0.7-1.6-0.7-2.5c0-1,0.2-1.8,0.7-2.5
	c0.5-0.7,1.1-1.3,1.8-1.7c0.8-0.4,1.6-0.6,2.6-0.6c0.7,0,1.4,0.1,2,0.4c0.6,0.2,1.1,0.6,1.5,1.1v-1.3H537.3z M532,134.3
	c0.9,0,1.6-0.3,2.2-0.8c0.6-0.5,0.9-1.2,0.9-2.1c0-0.8-0.3-1.5-0.9-2c-0.6-0.5-1.3-0.8-2.2-0.8c-0.9,0-1.6,0.3-2.2,0.8
	c-0.6,0.5-0.8,1.2-0.8,2c0,0.9,0.3,1.5,0.8,2.1C530.3,134,531,134.3,532,134.3z M548.7,136.8c-0.8,0-1.6-0.1-2.4-0.3
	c-0.8-0.2-1.4-0.5-1.9-0.8l0.9-1.8c0.5,0.3,1,0.5,1.6,0.7c0.6,0.2,1.3,0.3,1.9,0.3c1.4,0,2.1-0.4,2.1-1.1c0-0.4-0.2-0.6-0.5-0.7
	c-0.4-0.1-0.9-0.3-1.7-0.4c-0.8-0.1-1.5-0.3-2-0.4c-0.5-0.2-1-0.4-1.4-0.8c-0.4-0.4-0.6-1-0.6-1.7c0-1,0.4-1.7,1.2-2.3
	c0.8-0.6,1.9-0.9,3.2-0.9c0.7,0,1.4,0.1,2.1,0.2c0.7,0.2,1.3,0.4,1.7,0.6l-0.9,1.8c-0.9-0.5-1.8-0.8-2.9-0.8c-0.7,0-1.2,0.1-1.6,0.3
	c-0.4,0.2-0.5,0.5-0.5,0.8c0,0.4,0.2,0.6,0.6,0.8c0.4,0.2,1,0.3,1.8,0.4c0.8,0.1,1.5,0.3,2,0.4s1,0.4,1.3,0.8
	c0.4,0.4,0.6,0.9,0.6,1.7c0,0.9-0.4,1.7-1.2,2.3S550.1,136.8,548.7,136.8z M560.8,126.5c1,0,1.8,0.2,2.6,0.6c0.8,0.4,1.4,1,1.8,1.8
	s0.7,1.7,0.7,2.7c0,1-0.2,1.9-0.7,2.7c-0.4,0.8-1,1.4-1.8,1.8c-0.8,0.4-1.6,0.6-2.6,0.6c-1.4,0-2.4-0.5-3.2-1.4v4.9h-2.4v-13.7h2.2
	v1.3c0.4-0.5,0.9-0.8,1.4-1.1C559.5,126.7,560.2,126.5,560.8,126.5z M560.6,134.8c0.9,0,1.6-0.3,2.1-0.9c0.6-0.6,0.8-1.3,0.8-2.3
	s-0.3-1.7-0.8-2.3c-0.6-0.6-1.3-0.9-2.1-0.9c-0.6,0-1.1,0.1-1.5,0.4c-0.5,0.3-0.8,0.6-1.1,1.1c-0.3,0.5-0.4,1-0.4,1.7
	c0,0.6,0.1,1.2,0.4,1.7c0.3,0.5,0.6,0.8,1.1,1.1C559.5,134.7,560,134.8,560.6,134.8z M571.9,126.5c1.5,0,2.6,0.4,3.4,1.1
	c0.8,0.7,1.2,1.8,1.2,3.2v5.9h-2.2v-1.2c-0.3,0.4-0.7,0.8-1.2,1c-0.5,0.2-1.2,0.3-1.9,0.3c-0.8,0-1.4-0.1-2-0.4
	c-0.6-0.3-1-0.6-1.3-1.1c-0.3-0.5-0.5-1-0.5-1.6c0-0.9,0.3-1.6,1-2.2c0.7-0.6,1.7-0.8,3.2-0.8h2.6v-0.2c0-0.7-0.2-1.2-0.6-1.6
	c-0.4-0.4-1-0.6-1.9-0.6c-0.6,0-1.1,0.1-1.7,0.3c-0.5,0.2-1,0.4-1.4,0.7l-0.9-1.7c0.5-0.4,1.2-0.7,1.9-0.9
	C570.3,126.7,571,126.5,571.9,126.5z M571.6,135.1c0.6,0,1.1-0.1,1.6-0.4c0.5-0.3,0.8-0.7,1-1.2v-1.2h-2.4c-1.4,0-2,0.4-2,1.3
	c0,0.4,0.2,0.8,0.5,1C570.5,135,571,135.1,571.6,135.1z M584.2,136.8c-1,0-2-0.2-2.8-0.7c-0.8-0.4-1.5-1-1.9-1.8
	c-0.5-0.8-0.7-1.7-0.7-2.7c0-1,0.2-1.9,0.7-2.7c0.5-0.8,1.1-1.4,1.9-1.8c0.8-0.4,1.8-0.7,2.8-0.7c1,0,1.9,0.2,2.6,0.6
	c0.8,0.4,1.3,1,1.7,1.7l-1.8,1.1c-0.3-0.5-0.7-0.8-1.1-1c-0.4-0.2-0.9-0.4-1.4-0.4c-0.9,0-1.6,0.3-2.2,0.9c-0.6,0.6-0.9,1.3-0.9,2.3
	s0.3,1.7,0.8,2.3c0.6,0.6,1.3,0.8,2.2,0.8c0.5,0,1-0.1,1.4-0.3c0.4-0.2,0.8-0.6,1.1-1.1l1.8,1.1c-0.4,0.8-1,1.3-1.7,1.7
	C586,136.6,585.1,136.8,584.2,136.8z M599.8,131.7c0,0.2,0,0.4,0,0.7h-7.9c0.1,0.7,0.5,1.3,1.1,1.8c0.6,0.4,1.3,0.6,2.2,0.6
	c1.1,0,2-0.4,2.7-1.1l1.3,1.4c-0.5,0.5-1,0.9-1.7,1.2c-0.7,0.3-1.5,0.4-2.3,0.4c-1.1,0-2.1-0.2-2.9-0.7c-0.8-0.4-1.5-1-2-1.8
	c-0.5-0.8-0.7-1.7-0.7-2.7c0-1,0.2-1.9,0.7-2.6c0.5-0.8,1.1-1.4,1.9-1.8c0.8-0.4,1.7-0.7,2.7-0.7c1,0,1.8,0.2,2.6,0.7
	c0.8,0.4,1.4,1,1.8,1.8C599.6,129.8,599.8,130.7,599.8,131.7z M594.7,128.4c-0.8,0-1.4,0.2-1.9,0.7c-0.5,0.4-0.8,1-0.9,1.8h5.7
	c-0.1-0.7-0.4-1.3-0.9-1.8C596.1,128.7,595.5,128.4,594.7,128.4z M607.2,126.7h2.4v10h-2.4V126.7z M608.4,125
	c-0.4,0-0.8-0.1-1.1-0.4c-0.3-0.3-0.4-0.6-0.4-1s0.1-0.7,0.4-1c0.3-0.3,0.6-0.4,1.1-0.4c0.4,0,0.8,0.1,1.1,0.4
	c0.3,0.3,0.4,0.6,0.4,1c0,0.4-0.1,0.8-0.4,1.1C609.2,124.9,608.8,125,608.4,125z M615.8,136.8c-0.8,0-1.6-0.1-2.4-0.3
	c-0.8-0.2-1.4-0.5-1.9-0.8l0.9-1.8c0.5,0.3,1,0.5,1.6,0.7c0.6,0.2,1.3,0.3,1.9,0.3c1.4,0,2.1-0.4,2.1-1.1c0-0.4-0.2-0.6-0.5-0.7
	c-0.4-0.1-0.9-0.3-1.7-0.4c-0.8-0.1-1.5-0.3-2-0.4c-0.5-0.2-1-0.4-1.4-0.8c-0.4-0.4-0.6-1-0.6-1.7c0-1,0.4-1.7,1.2-2.3
	c0.8-0.6,1.9-0.9,3.2-0.9c0.7,0,1.4,0.1,2.1,0.2c0.7,0.2,1.3,0.4,1.7,0.6l-0.9,1.8c-0.9-0.5-1.8-0.8-2.9-0.8c-0.7,0-1.2,0.1-1.6,0.3
	c-0.4,0.2-0.5,0.5-0.5,0.8c0,0.4,0.2,0.6,0.6,0.8c0.4,0.2,1,0.3,1.8,0.4c0.8,0.1,1.5,0.3,2,0.4c0.5,0.2,1,0.4,1.3,0.8
	c0.4,0.4,0.6,0.9,0.6,1.7c0,0.9-0.4,1.7-1.2,2.3C618.3,136.5,617.2,136.8,615.8,136.8z M633.1,126.5c1,0,1.8,0.2,2.6,0.6
	c0.8,0.4,1.4,1,1.8,1.8c0.4,0.8,0.7,1.7,0.7,2.7c0,1-0.2,1.9-0.7,2.7c-0.4,0.8-1,1.4-1.8,1.8c-0.8,0.4-1.6,0.6-2.6,0.6
	c-0.7,0-1.3-0.1-1.9-0.4c-0.6-0.2-1-0.6-1.4-1.1v1.3h-2.2v-14h2.4v5.1c0.4-0.4,0.9-0.8,1.4-1C631.8,126.7,632.5,126.5,633.1,126.5z
	 M632.8,134.8c0.9,0,1.6-0.3,2.1-0.9c0.6-0.6,0.8-1.3,0.8-2.3s-0.3-1.7-0.8-2.3c-0.6-0.6-1.3-0.9-2.1-0.9c-0.6,0-1.1,0.1-1.5,0.4
	c-0.5,0.3-0.8,0.6-1.1,1.1c-0.3,0.5-0.4,1-0.4,1.7c0,0.6,0.1,1.2,0.4,1.7c0.3,0.5,0.6,0.8,1.1,1.1
	C631.8,134.7,632.3,134.8,632.8,134.8z M642.7,128.1c0.7-1.1,1.9-1.6,3.6-1.6v2.2c-0.2,0-0.4-0.1-0.5-0.1c-0.9,0-1.6,0.3-2.1,0.8
	c-0.5,0.5-0.8,1.3-0.8,2.3v4.9h-2.4v-10h2.2V128.1z M652.7,136.8c-1,0-1.9-0.2-2.7-0.7c-0.8-0.4-1.5-1-1.9-1.8
	c-0.5-0.8-0.7-1.7-0.7-2.7c0-1,0.2-1.9,0.7-2.7c0.5-0.8,1.1-1.4,1.9-1.8c0.8-0.4,1.7-0.7,2.7-0.7c1,0,2,0.2,2.8,0.7
	c0.8,0.4,1.4,1,1.9,1.8c0.5,0.8,0.7,1.7,0.7,2.7c0,1-0.2,1.9-0.7,2.7c-0.5,0.8-1.1,1.4-1.9,1.8C654.6,136.6,653.7,136.8,652.7,136.8
	z M652.7,134.8c0.9,0,1.6-0.3,2.1-0.9s0.8-1.3,0.8-2.3s-0.3-1.7-0.8-2.3s-1.3-0.9-2.1-0.9s-1.6,0.3-2.1,0.9
	c-0.6,0.6-0.8,1.3-0.8,2.3s0.3,1.7,0.8,2.3C651.1,134.5,651.8,134.8,652.7,134.8z M664.4,132.4l-1.7,1.7v2.7h-2.4v-14h2.4v8.4
	l4.9-4.5h2.8l-4.2,4.2l4.6,5.8h-2.9L664.4,132.4z M681.2,131.7c0,0.2,0,0.4,0,0.7h-7.9c0.1,0.7,0.5,1.3,1.1,1.8
	c0.6,0.4,1.3,0.6,2.2,0.6c1.1,0,2-0.4,2.7-1.1l1.3,1.4c-0.5,0.5-1,0.9-1.7,1.2c-0.7,0.3-1.5,0.4-2.3,0.4c-1.1,0-2.1-0.2-2.9-0.7
	c-0.8-0.4-1.5-1-2-1.8c-0.5-0.8-0.7-1.7-0.7-2.7c0-1,0.2-1.9,0.7-2.6c0.5-0.8,1.1-1.4,1.9-1.8c0.8-0.4,1.7-0.7,2.7-0.7
	c1,0,1.8,0.2,2.6,0.7c0.8,0.4,1.4,1,1.8,1.8C681,129.8,681.2,130.7,681.2,131.7z M676.2,128.4c-0.8,0-1.4,0.2-1.9,0.7
	c-0.5,0.4-0.8,1-0.9,1.8h5.7c-0.1-0.7-0.4-1.3-0.9-1.8C677.6,128.7,676.9,128.4,676.2,128.4z M689.2,126.5c1.3,0,2.3,0.4,3,1.1
	s1.1,1.8,1.1,3.3v5.8H691v-5.5c0-0.9-0.2-1.5-0.6-2c-0.4-0.5-1-0.7-1.8-0.7c-0.9,0-1.5,0.3-2,0.8c-0.5,0.5-0.8,1.3-0.8,2.2v5.1h-2.4
	v-10h2.2v1.3c0.4-0.5,0.9-0.8,1.5-1.1C687.8,126.7,688.4,126.5,689.2,126.5z M697.1,136.8c-0.4,0-0.8-0.1-1.1-0.4
	c-0.3-0.3-0.5-0.7-0.5-1.1c0-0.5,0.1-0.8,0.4-1.1c0.3-0.3,0.7-0.4,1.1-0.4c0.4,0,0.8,0.1,1.1,0.4c0.3,0.3,0.5,0.7,0.5,1.1
	c0,0.5-0.2,0.8-0.5,1.1C697.9,136.7,697.5,136.8,697.1,136.8z M407.3,141.4l-4.4,13.2h-2.6l-3.3-9.7l-3.3,9.7h-2.6l-4.4-13.2h2.5
	l3.3,10l3.4-10h2.3l3.3,10.1l3.4-10.1H407.3z M417.8,149.6c0,0.2,0,0.4,0,0.7h-7.9c0.1,0.7,0.5,1.3,1.1,1.8c0.6,0.4,1.3,0.6,2.2,0.6
	c1.1,0,2-0.4,2.7-1.1l1.3,1.4c-0.5,0.5-1,0.9-1.7,1.2c-0.7,0.3-1.5,0.4-2.3,0.4c-1.1,0-2.1-0.2-2.9-0.7c-0.8-0.4-1.5-1-2-1.8
	c-0.5-0.8-0.7-1.7-0.7-2.7c0-1,0.2-1.9,0.7-2.6c0.5-0.8,1.1-1.4,1.9-1.8s1.7-0.7,2.7-0.7c1,0,1.8,0.2,2.6,0.7c0.8,0.4,1.4,1,1.8,1.8
	C417.6,147.7,417.8,148.6,417.8,149.6z M412.7,146.3c-0.8,0-1.4,0.2-1.9,0.7c-0.5,0.4-0.8,1-0.9,1.8h5.7c-0.1-0.7-0.4-1.3-0.9-1.8
	C414.1,146.5,413.5,146.3,412.7,146.3z M420.8,140.5c0.4,0,0.8,0.1,1.1,0.4c0.3,0.3,0.4,0.7,0.4,1.1c0,0.2,0,0.4-0.1,0.7
	c-0.1,0.2-0.2,0.5-0.3,1l-1,2.7h-1.5l0.8-2.9c-0.3-0.1-0.5-0.3-0.7-0.5c-0.2-0.3-0.2-0.5-0.2-0.9c0-0.5,0.1-0.8,0.4-1.1
	C420,140.6,420.4,140.5,420.8,140.5z M434.3,144.5l-4.3,10h-2.4l-4.3-10h2.4l3.1,7.4l3.2-7.4H434.3z M444.9,149.6c0,0.2,0,0.4,0,0.7
	H437c0.1,0.7,0.5,1.3,1.1,1.8c0.6,0.4,1.3,0.6,2.2,0.6c1.1,0,2-0.4,2.7-1.1l1.3,1.4c-0.5,0.5-1,0.9-1.7,1.2
	c-0.7,0.3-1.5,0.4-2.3,0.4c-1.1,0-2.1-0.2-2.9-0.7c-0.8-0.4-1.5-1-2-1.8c-0.5-0.8-0.7-1.7-0.7-2.7c0-1,0.2-1.9,0.7-2.6
	c0.5-0.8,1.1-1.4,1.9-1.8c0.8-0.4,1.7-0.7,2.7-0.7c1,0,1.8,0.2,2.6,0.7c0.8,0.4,1.4,1,1.8,1.8C444.7,147.7,444.9,148.6,444.9,149.6z
	 M439.9,146.3c-0.8,0-1.4,0.2-1.9,0.7c-0.5,0.4-0.8,1-0.9,1.8h5.7c-0.1-0.7-0.4-1.3-0.9-1.8C441.3,146.5,440.6,146.3,439.9,146.3z
	 M457,154.7c-1,0-2-0.2-2.8-0.7c-0.8-0.4-1.5-1-1.9-1.8c-0.5-0.8-0.7-1.7-0.7-2.7c0-1,0.2-1.9,0.7-2.7c0.5-0.8,1.1-1.4,1.9-1.8
	c0.8-0.4,1.8-0.7,2.8-0.7c1,0,1.9,0.2,2.6,0.6c0.8,0.4,1.3,1,1.7,1.7l-1.8,1.1c-0.3-0.5-0.7-0.8-1.1-1c-0.4-0.2-0.9-0.4-1.4-0.4
	c-0.9,0-1.6,0.3-2.2,0.9c-0.6,0.6-0.9,1.3-0.9,2.3s0.3,1.7,0.8,2.3c0.6,0.6,1.3,0.8,2.2,0.8c0.5,0,1-0.1,1.4-0.3
	c0.4-0.2,0.8-0.6,1.1-1.1l1.8,1.1c-0.4,0.8-1,1.3-1.7,1.7C458.8,154.5,458,154.7,457,154.7z M467.7,154.7c-1,0-1.9-0.2-2.7-0.7
	c-0.8-0.4-1.5-1-1.9-1.8c-0.5-0.8-0.7-1.7-0.7-2.7c0-1,0.2-1.9,0.7-2.7c0.5-0.8,1.1-1.4,1.9-1.8c0.8-0.4,1.7-0.7,2.7-0.7
	c1,0,1.9,0.2,2.8,0.7c0.8,0.4,1.4,1,1.9,1.8c0.5,0.8,0.7,1.7,0.7,2.7c0,1-0.2,1.9-0.7,2.7c-0.5,0.8-1.1,1.4-1.9,1.8
	C469.6,154.5,468.7,154.7,467.7,154.7z M467.7,152.7c0.9,0,1.6-0.3,2.1-0.9c0.6-0.6,0.8-1.3,0.8-2.3s-0.3-1.7-0.8-2.3
	c-0.6-0.6-1.3-0.9-2.1-0.9c-0.9,0-1.6,0.3-2.1,0.9c-0.6,0.6-0.8,1.3-0.8,2.3s0.3,1.7,0.8,2.3C466.1,152.4,466.8,152.7,467.7,152.7z
	 M488,144.4c1.3,0,2.3,0.4,3,1.1c0.7,0.7,1.1,1.8,1.1,3.3v5.8h-2.4v-5.5c0-0.9-0.2-1.5-0.6-2c-0.4-0.5-0.9-0.7-1.7-0.7
	c-0.8,0-1.4,0.3-1.9,0.8c-0.5,0.5-0.7,1.3-0.7,2.2v5.1h-2.4v-5.5c0-0.9-0.2-1.5-0.6-2c-0.4-0.5-0.9-0.7-1.7-0.7
	c-0.8,0-1.4,0.3-1.9,0.8c-0.5,0.5-0.7,1.3-0.7,2.2v5.1h-2.4v-10h2.2v1.3c0.4-0.5,0.8-0.8,1.4-1c0.6-0.2,1.2-0.4,1.9-0.4
	c0.8,0,1.4,0.1,2,0.4c0.6,0.3,1.1,0.7,1.4,1.2c0.4-0.5,0.9-0.9,1.6-1.2C486.5,144.6,487.2,144.4,488,144.4z M504.6,149.6
	c0,0.2,0,0.4,0,0.7h-7.9c0.1,0.7,0.5,1.3,1.1,1.8c0.6,0.4,1.3,0.6,2.2,0.6c1.1,0,2-0.4,2.7-1.1l1.3,1.4c-0.5,0.5-1,0.9-1.7,1.2
	c-0.7,0.3-1.5,0.4-2.3,0.4c-1.1,0-2.1-0.2-2.9-0.7c-0.8-0.4-1.5-1-2-1.8c-0.5-0.8-0.7-1.7-0.7-2.7c0-1,0.2-1.9,0.7-2.6
	c0.5-0.8,1.1-1.4,1.9-1.8c0.8-0.4,1.7-0.7,2.7-0.7c1,0,1.8,0.2,2.6,0.7c0.8,0.4,1.4,1,1.8,1.8C504.4,147.7,504.6,148.6,504.6,149.6z
	 M499.6,146.3c-0.8,0-1.4,0.2-1.9,0.7c-0.5,0.4-0.8,1-0.9,1.8h5.7c-0.1-0.7-0.4-1.3-0.9-1.8C501,146.5,500.3,146.3,499.6,146.3z
	 M515.9,144.4c1.5,0,2.6,0.4,3.4,1.1c0.8,0.7,1.2,1.8,1.2,3.2v5.9h-2.2v-1.2c-0.3,0.4-0.7,0.8-1.2,1c-0.5,0.2-1.2,0.3-1.9,0.3
	s-1.4-0.1-2-0.4c-0.6-0.3-1-0.6-1.3-1.1c-0.3-0.5-0.5-1-0.5-1.6c0-0.9,0.3-1.6,1-2.2c0.7-0.6,1.7-0.8,3.2-0.8h2.6v-0.2
	c0-0.7-0.2-1.2-0.6-1.6c-0.4-0.4-1-0.6-1.9-0.6c-0.6,0-1.1,0.1-1.7,0.3c-0.5,0.2-1,0.4-1.4,0.7l-0.9-1.7c0.5-0.4,1.2-0.7,1.9-0.9
	C514.3,144.5,515.1,144.4,515.9,144.4z M515.6,153c0.6,0,1.1-0.1,1.6-0.4c0.5-0.3,0.8-0.7,1-1.2v-1.2h-2.4c-1.4,0-2,0.4-2,1.3
	c0,0.4,0.2,0.8,0.5,1C514.5,152.9,515,153,515.6,153z M528.7,140.6h2.4v14h-2.4V140.6z M538.7,154.7c-1,0-1.9-0.2-2.7-0.7
	c-0.8-0.4-1.5-1-1.9-1.8c-0.5-0.8-0.7-1.7-0.7-2.7c0-1,0.2-1.9,0.7-2.7c0.5-0.8,1.1-1.4,1.9-1.8c0.8-0.4,1.7-0.7,2.7-0.7
	c1,0,2,0.2,2.8,0.7c0.8,0.4,1.4,1,1.9,1.8c0.5,0.8,0.7,1.7,0.7,2.7c0,1-0.2,1.9-0.7,2.7c-0.5,0.8-1.1,1.4-1.9,1.8
	C540.6,154.5,539.7,154.7,538.7,154.7z M538.7,152.7c0.9,0,1.6-0.3,2.1-0.9c0.6-0.6,0.8-1.3,0.8-2.3s-0.3-1.7-0.8-2.3
	c-0.6-0.6-1.3-0.9-2.1-0.9c-0.9,0-1.6,0.3-2.1,0.9c-0.6,0.6-0.8,1.3-0.8,2.3s0.3,1.7,0.8,2.3C537.1,152.4,537.8,152.7,538.7,152.7z
	 M552,144.4c1.3,0,2.3,0.4,3,1.1c0.8,0.7,1.1,1.8,1.1,3.3v5.8h-2.4v-5.5c0-0.9-0.2-1.5-0.6-2c-0.4-0.5-1-0.7-1.8-0.7
	c-0.9,0-1.5,0.3-2,0.8c-0.5,0.5-0.8,1.3-0.8,2.2v5.1h-2.4v-10h2.2v1.3c0.4-0.5,0.9-0.8,1.5-1.1S551.2,144.4,552,144.4z M569.2,144.5
	v8.5c0,3.5-1.8,5.3-5.4,5.3c-1,0-1.9-0.1-2.7-0.4c-0.9-0.2-1.6-0.6-2.1-1.1l1.1-1.8c0.4,0.4,1,0.7,1.7,0.9c0.7,0.2,1.4,0.3,2,0.3
	c1.1,0,1.9-0.3,2.4-0.8c0.5-0.5,0.8-1.3,0.8-2.3v-0.5c-0.4,0.4-0.9,0.8-1.5,1s-1.2,0.3-1.9,0.3c-1,0-1.8-0.2-2.6-0.6
	c-0.8-0.4-1.4-1-1.8-1.7c-0.4-0.7-0.7-1.6-0.7-2.5s0.2-1.8,0.7-2.5c0.5-0.7,1.1-1.3,1.8-1.7c0.8-0.4,1.6-0.6,2.6-0.6
	c0.7,0,1.4,0.1,2,0.4c0.6,0.2,1.1,0.6,1.5,1.1v-1.3H569.2z M563.8,152.1c0.9,0,1.6-0.3,2.2-0.8c0.6-0.5,0.9-1.2,0.9-2.1
	c0-0.8-0.3-1.5-0.9-2c-0.6-0.5-1.3-0.8-2.2-0.8c-0.9,0-1.6,0.3-2.2,0.8c-0.6,0.5-0.8,1.2-0.8,2c0,0.9,0.3,1.5,0.8,2.1
	C562.2,151.9,562.9,152.1,563.8,152.1z M593.1,144.5l-3.7,10h-2.3l-2.6-6.9l-2.6,6.9h-2.3l-3.7-10h2.2l2.7,7.4l2.8-7.4h2l2.7,7.4
	l2.7-7.4H593.1z M598.3,144.4c1.5,0,2.6,0.4,3.4,1.1c0.8,0.7,1.2,1.8,1.2,3.2v5.9h-2.2v-1.2c-0.3,0.4-0.7,0.8-1.2,1
	c-0.5,0.2-1.2,0.3-1.9,0.3c-0.8,0-1.4-0.1-2-0.4c-0.6-0.3-1-0.6-1.3-1.1c-0.3-0.5-0.5-1-0.5-1.6c0-0.9,0.3-1.6,1-2.2
	c0.7-0.6,1.7-0.8,3.2-0.8h2.6v-0.2c0-0.7-0.2-1.2-0.6-1.6c-0.4-0.4-1-0.6-1.9-0.6c-0.6,0-1.1,0.1-1.7,0.3c-0.5,0.2-1,0.4-1.4,0.7
	l-0.9-1.7c0.5-0.4,1.2-0.7,1.9-0.9C596.7,144.5,597.5,144.4,598.3,144.4z M598,153c0.6,0,1.1-0.1,1.6-0.4c0.5-0.3,0.8-0.7,1-1.2
	v-1.2h-2.4c-1.4,0-2,0.4-2,1.3c0,0.4,0.2,0.8,0.5,1C596.9,152.9,597.4,153,598,153z M615.1,144.5l-4.7,10.9c-0.4,1.1-1,1.9-1.6,2.3
	c-0.6,0.5-1.4,0.7-2.3,0.7c-0.5,0-1-0.1-1.5-0.2c-0.5-0.2-0.9-0.4-1.2-0.7l0.9-1.7c0.2,0.2,0.5,0.4,0.8,0.5c0.3,0.1,0.6,0.2,0.9,0.2
	c0.4,0,0.8-0.1,1-0.3c0.3-0.2,0.5-0.6,0.8-1.1l0.2-0.4l-4.4-10.1h2.4l3.2,7.4l3.2-7.4H615.1z"/>
<path class="st1" d="M28.8,208.3h-4.4v-2.1h11.2v2.1h-4.4v11.1h-2.4V208.3z M42.9,209.3c1.3,0,2.3,0.4,3,1.1
	c0.8,0.7,1.1,1.8,1.1,3.3v5.8h-2.4V214c0-0.9-0.2-1.5-0.6-2c-0.4-0.5-1-0.7-1.8-0.7c-0.9,0-1.5,0.3-2,0.8c-0.5,0.5-0.8,1.3-0.8,2.2
	v5.1h-2.4v-14h2.4v5.1c0.4-0.4,0.9-0.7,1.4-0.9C41.6,209.4,42.2,209.3,42.9,209.3z M59.6,214.5c0,0.2,0,0.4,0,0.7h-7.9
	c0.1,0.7,0.5,1.3,1.1,1.8c0.6,0.4,1.3,0.6,2.2,0.6c1.1,0,2-0.4,2.7-1.1l1.3,1.4c-0.5,0.5-1,0.9-1.7,1.2s-1.5,0.4-2.3,0.4
	c-1.1,0-2.1-0.2-2.9-0.7c-0.8-0.4-1.5-1-2-1.8c-0.5-0.8-0.7-1.7-0.7-2.7c0-1,0.2-1.9,0.7-2.6c0.5-0.8,1.1-1.4,1.9-1.8
	c0.8-0.4,1.7-0.7,2.7-0.7c1,0,1.8,0.2,2.6,0.7c0.8,0.4,1.4,1,1.8,1.8C59.4,212.5,59.6,213.4,59.6,214.5z M54.5,211.2
	c-0.8,0-1.4,0.2-1.9,0.7c-0.5,0.4-0.8,1-0.9,1.8h5.7c-0.1-0.7-0.4-1.3-0.9-1.8C55.9,211.4,55.3,211.2,54.5,211.2z M71.1,207.3
	c-1,0-1.5,0.5-1.5,1.6v0.6h2.8v1.9h-2.7v8.1h-2.4v-8.1h-1.7v-1.9h1.7v-0.6c0-1.1,0.3-1.9,0.9-2.5c0.6-0.6,1.5-0.9,2.7-0.9
	c0.9,0,1.6,0.2,2.1,0.5l-0.7,1.8C72,207.4,71.6,207.3,71.1,207.3z M83.7,209.4v10h-2.2v-1.3c-0.4,0.5-0.8,0.8-1.4,1.1
	c-0.6,0.2-1.2,0.4-1.8,0.4c-1.3,0-2.4-0.4-3.2-1.1c-0.8-0.8-1.1-1.9-1.1-3.3v-5.7h2.4v5.4c0,0.9,0.2,1.6,0.6,2
	c0.4,0.4,1,0.7,1.7,0.7c0.8,0,1.5-0.3,2-0.8c0.5-0.5,0.8-1.3,0.8-2.3v-5.1H83.7z M92.5,209.3c1.3,0,2.3,0.4,3,1.1
	c0.8,0.7,1.1,1.8,1.1,3.3v5.8h-2.4V214c0-0.9-0.2-1.5-0.6-2c-0.4-0.5-1-0.7-1.8-0.7c-0.9,0-1.5,0.3-2,0.8c-0.5,0.5-0.8,1.3-0.8,2.2
	v5.1h-2.4v-10H89v1.3c0.4-0.5,0.9-0.8,1.5-1.1C91.1,209.4,91.8,209.3,92.5,209.3z M109.6,205.5v14h-2.3v-1.3
	c-0.4,0.5-0.9,0.8-1.4,1.1c-0.6,0.2-1.2,0.4-1.9,0.4c-1,0-1.8-0.2-2.6-0.6c-0.8-0.4-1.4-1-1.8-1.8c-0.4-0.8-0.7-1.7-0.7-2.7
	c0-1,0.2-1.9,0.7-2.7c0.4-0.8,1-1.4,1.8-1.8c0.8-0.4,1.6-0.6,2.6-0.6c0.7,0,1.3,0.1,1.8,0.3c0.6,0.2,1,0.6,1.4,1v-5.2H109.6z
	 M104.3,217.6c0.6,0,1.1-0.1,1.5-0.4c0.5-0.3,0.8-0.6,1.1-1.1c0.3-0.5,0.4-1,0.4-1.7s-0.1-1.2-0.4-1.7c-0.3-0.5-0.6-0.8-1.1-1.1
	c-0.5-0.3-1-0.4-1.5-0.4s-1.1,0.1-1.5,0.4c-0.5,0.3-0.8,0.6-1.1,1.1c-0.3,0.5-0.4,1-0.4,1.7s0.1,1.2,0.4,1.7
	c0.3,0.5,0.6,0.8,1.1,1.1C103.2,217.4,103.7,217.6,104.3,217.6z M114.9,210.9c0.7-1.1,1.9-1.6,3.6-1.6v2.2c-0.2,0-0.4-0.1-0.5-0.1
	c-0.9,0-1.6,0.3-2.1,0.8c-0.5,0.5-0.8,1.3-0.8,2.3v4.9h-2.4v-10h2.2V210.9z M124.3,209.3c1.5,0,2.6,0.4,3.4,1.1
	c0.8,0.7,1.2,1.8,1.2,3.2v5.9h-2.2v-1.2c-0.3,0.4-0.7,0.8-1.2,1c-0.5,0.2-1.2,0.3-1.9,0.3c-0.8,0-1.4-0.1-2-0.4
	c-0.6-0.3-1-0.6-1.3-1.1c-0.3-0.5-0.5-1-0.5-1.6c0-0.9,0.3-1.6,1-2.2c0.7-0.6,1.7-0.8,3.2-0.8h2.6v-0.2c0-0.7-0.2-1.2-0.6-1.6
	c-0.4-0.4-1-0.6-1.9-0.6c-0.6,0-1.1,0.1-1.7,0.3c-0.5,0.2-1,0.4-1.4,0.7l-0.9-1.7c0.5-0.4,1.2-0.7,1.9-0.9
	C122.7,209.4,123.4,209.3,124.3,209.3z M123.9,217.9c0.6,0,1.1-0.1,1.6-0.4c0.5-0.3,0.8-0.7,1-1.2v-1.2h-2.4c-1.4,0-2,0.4-2,1.3
	c0,0.4,0.2,0.8,0.5,1S123.3,217.9,123.9,217.9z M131.8,209.4h2.4v10h-2.4V209.4z M133,207.7c-0.4,0-0.8-0.1-1.1-0.4
	c-0.3-0.3-0.4-0.6-0.4-1s0.1-0.7,0.4-1c0.3-0.3,0.6-0.4,1.1-0.4c0.4,0,0.8,0.1,1.1,0.4c0.3,0.3,0.4,0.6,0.4,1c0,0.4-0.1,0.8-0.4,1.1
	C133.8,207.6,133.5,207.7,133,207.7z M140.4,219.6c-0.8,0-1.6-0.1-2.4-0.3c-0.8-0.2-1.4-0.5-1.9-0.8l0.9-1.8c0.5,0.3,1,0.5,1.6,0.7
	c0.6,0.2,1.3,0.3,1.9,0.3c1.4,0,2.1-0.4,2.1-1.1c0-0.4-0.2-0.6-0.5-0.7c-0.4-0.1-0.9-0.3-1.7-0.4c-0.8-0.1-1.5-0.3-2-0.4
	c-0.5-0.2-1-0.4-1.4-0.8c-0.4-0.4-0.6-1-0.6-1.7c0-1,0.4-1.7,1.2-2.3c0.8-0.6,1.9-0.9,3.2-0.9c0.7,0,1.4,0.1,2.1,0.2
	c0.7,0.2,1.3,0.4,1.7,0.6l-0.9,1.8c-0.9-0.5-1.8-0.8-2.9-0.8c-0.7,0-1.2,0.1-1.6,0.3c-0.4,0.2-0.5,0.5-0.5,0.8
	c0,0.4,0.2,0.6,0.6,0.8c0.4,0.2,1,0.3,1.8,0.4c0.8,0.1,1.5,0.3,2,0.4c0.5,0.2,1,0.4,1.3,0.8c0.4,0.4,0.6,0.9,0.6,1.7
	c0,0.9-0.4,1.7-1.2,2.3C142.9,219.3,141.8,219.6,140.4,219.6z M147,209.4h2.4v10H147V209.4z M148.1,207.7c-0.4,0-0.8-0.1-1.1-0.4
	c-0.3-0.3-0.4-0.6-0.4-1s0.1-0.7,0.4-1c0.3-0.3,0.6-0.4,1.1-0.4c0.4,0,0.8,0.1,1.1,0.4c0.3,0.3,0.4,0.6,0.4,1c0,0.4-0.1,0.8-0.4,1.1
	C148.9,207.6,148.6,207.7,148.1,207.7z M158.1,209.3c1.3,0,2.3,0.4,3,1.1c0.8,0.7,1.1,1.8,1.1,3.3v5.8h-2.4V214c0-0.9-0.2-1.5-0.6-2
	c-0.4-0.5-1-0.7-1.8-0.7c-0.9,0-1.5,0.3-2,0.8c-0.5,0.5-0.8,1.3-0.8,2.2v5.1h-2.4v-10h2.2v1.3c0.4-0.5,0.9-0.8,1.5-1.1
	C156.7,209.4,157.4,209.3,158.1,209.3z M175.3,209.4v8.5c0,3.5-1.8,5.3-5.4,5.3c-1,0-1.9-0.1-2.7-0.4c-0.9-0.2-1.6-0.6-2.1-1.1
	l1.1-1.8c0.4,0.4,1,0.7,1.7,0.9c0.7,0.2,1.4,0.3,2,0.3c1.1,0,1.9-0.3,2.4-0.8c0.5-0.5,0.8-1.3,0.8-2.3v-0.5c-0.4,0.4-0.9,0.8-1.5,1
	c-0.6,0.2-1.2,0.3-1.9,0.3c-1,0-1.8-0.2-2.6-0.6c-0.8-0.4-1.4-1-1.8-1.7c-0.4-0.7-0.7-1.6-0.7-2.5s0.2-1.8,0.7-2.5
	c0.5-0.7,1.1-1.3,1.8-1.7c0.8-0.4,1.6-0.6,2.6-0.6c0.7,0,1.4,0.1,2,0.4c0.6,0.2,1.1,0.6,1.5,1.1v-1.3H175.3z M170,217
	c0.9,0,1.6-0.3,2.2-0.8c0.6-0.5,0.9-1.2,0.9-2.1c0-0.8-0.3-1.5-0.9-2c-0.6-0.5-1.3-0.8-2.2-0.8c-0.9,0-1.6,0.3-2.2,0.8
	c-0.6,0.5-0.8,1.2-0.8,2c0,0.9,0.3,1.5,0.8,2.1C168.3,216.7,169.1,217,170,217z M186.7,219.6c-0.8,0-1.6-0.1-2.4-0.3
	c-0.8-0.2-1.4-0.5-1.9-0.8l0.9-1.8c0.5,0.3,1,0.5,1.6,0.7c0.6,0.2,1.3,0.3,1.9,0.3c1.4,0,2.1-0.4,2.1-1.1c0-0.4-0.2-0.6-0.5-0.7
	c-0.4-0.1-0.9-0.3-1.7-0.4c-0.8-0.1-1.5-0.3-2-0.4c-0.5-0.2-1-0.4-1.4-0.8c-0.4-0.4-0.6-1-0.6-1.7c0-1,0.4-1.7,1.2-2.3
	c0.8-0.6,1.9-0.9,3.2-0.9c0.7,0,1.4,0.1,2.1,0.2c0.7,0.2,1.3,0.4,1.7,0.6l-0.9,1.8c-0.9-0.5-1.8-0.8-2.9-0.8c-0.7,0-1.2,0.1-1.6,0.3
	c-0.4,0.2-0.5,0.5-0.5,0.8c0,0.4,0.2,0.6,0.6,0.8c0.4,0.2,1,0.3,1.8,0.4c0.8,0.1,1.5,0.3,2,0.4c0.5,0.2,1,0.4,1.3,0.8
	c0.4,0.4,0.6,0.9,0.6,1.7c0,0.9-0.4,1.7-1.2,2.3C189.2,219.3,188.1,219.6,186.7,219.6z M198.9,209.3c1,0,1.8,0.2,2.6,0.6
	c0.8,0.4,1.4,1,1.8,1.8s0.7,1.7,0.7,2.7c0,1-0.2,1.9-0.7,2.7c-0.4,0.8-1,1.4-1.8,1.8c-0.8,0.4-1.6,0.6-2.6,0.6
	c-1.4,0-2.4-0.5-3.2-1.4v4.9h-2.4v-13.7h2.2v1.3c0.4-0.5,0.9-0.8,1.4-1.1C197.5,209.4,198.2,209.3,198.9,209.3z M198.6,217.6
	c0.9,0,1.6-0.3,2.1-0.9c0.6-0.6,0.8-1.3,0.8-2.3c0-0.9-0.3-1.7-0.8-2.3c-0.6-0.6-1.3-0.9-2.1-0.9c-0.6,0-1.1,0.1-1.5,0.4
	c-0.5,0.3-0.8,0.6-1.1,1.1c-0.3,0.5-0.4,1-0.4,1.7s0.1,1.2,0.4,1.7c0.3,0.5,0.6,0.8,1.1,1.1C197.5,217.4,198,217.6,198.6,217.6z
	 M209.9,209.3c1.5,0,2.6,0.4,3.4,1.1c0.8,0.7,1.2,1.8,1.2,3.2v5.9h-2.2v-1.2c-0.3,0.4-0.7,0.8-1.2,1c-0.5,0.2-1.2,0.3-1.9,0.3
	c-0.8,0-1.4-0.1-2-0.4c-0.6-0.3-1-0.6-1.3-1.1c-0.3-0.5-0.5-1-0.5-1.6c0-0.9,0.3-1.6,1-2.2c0.7-0.6,1.7-0.8,3.2-0.8h2.6v-0.2
	c0-0.7-0.2-1.2-0.6-1.6c-0.4-0.4-1-0.6-1.9-0.6c-0.6,0-1.1,0.1-1.7,0.3c-0.5,0.2-1,0.4-1.4,0.7l-0.9-1.7c0.5-0.4,1.2-0.7,1.9-0.9
	C208.3,209.4,209.1,209.3,209.9,209.3z M209.6,217.9c0.6,0,1.1-0.1,1.6-0.4c0.5-0.3,0.8-0.7,1-1.2v-1.2h-2.4c-1.4,0-2,0.4-2,1.3
	c0,0.4,0.2,0.8,0.5,1S209,217.9,209.6,217.9z M222.2,219.6c-1,0-2-0.2-2.8-0.7c-0.8-0.4-1.5-1-1.9-1.8c-0.5-0.8-0.7-1.7-0.7-2.7
	s0.2-1.9,0.7-2.7c0.5-0.8,1.1-1.4,1.9-1.8c0.8-0.4,1.8-0.7,2.8-0.7c1,0,1.9,0.2,2.6,0.6c0.8,0.4,1.3,1,1.7,1.7l-1.8,1.1
	c-0.3-0.5-0.7-0.8-1.1-1c-0.4-0.2-0.9-0.4-1.4-0.4c-0.9,0-1.6,0.3-2.2,0.9c-0.6,0.6-0.9,1.3-0.9,2.3c0,1,0.3,1.7,0.8,2.3
	c0.6,0.6,1.3,0.8,2.2,0.8c0.5,0,1-0.1,1.4-0.3c0.4-0.2,0.8-0.6,1.1-1.1l1.8,1.1c-0.4,0.8-1,1.3-1.7,1.7
	C224,219.4,223.2,219.6,222.2,219.6z M237.8,214.5c0,0.2,0,0.4,0,0.7h-7.9c0.1,0.7,0.5,1.3,1.1,1.8c0.6,0.4,1.3,0.6,2.2,0.6
	c1.1,0,2-0.4,2.7-1.1l1.3,1.4c-0.5,0.5-1,0.9-1.7,1.2s-1.5,0.4-2.3,0.4c-1.1,0-2.1-0.2-2.9-0.7c-0.8-0.4-1.5-1-2-1.8
	c-0.5-0.8-0.7-1.7-0.7-2.7c0-1,0.2-1.9,0.7-2.6c0.5-0.8,1.1-1.4,1.9-1.8c0.8-0.4,1.7-0.7,2.7-0.7c1,0,1.8,0.2,2.6,0.7
	c0.8,0.4,1.4,1,1.8,1.8C237.6,212.5,237.8,213.4,237.8,214.5z M232.7,211.2c-0.8,0-1.4,0.2-1.9,0.7c-0.5,0.4-0.8,1-0.9,1.8h5.7
	c-0.1-0.7-0.4-1.3-0.9-1.8C234.1,211.4,233.5,211.2,232.7,211.2z M245.2,209.4h2.4v10h-2.4V209.4z M246.4,207.7
	c-0.4,0-0.8-0.1-1.1-0.4c-0.3-0.3-0.4-0.6-0.4-1s0.1-0.7,0.4-1c0.3-0.3,0.6-0.4,1.1-0.4c0.4,0,0.8,0.1,1.1,0.4
	c0.3,0.3,0.4,0.6,0.4,1c0,0.4-0.1,0.8-0.4,1.1C247.2,207.6,246.9,207.7,246.4,207.7z M253.8,219.6c-0.8,0-1.6-0.1-2.4-0.3
	c-0.8-0.2-1.4-0.5-1.9-0.8l0.9-1.8c0.5,0.3,1,0.5,1.6,0.7c0.6,0.2,1.3,0.3,1.9,0.3c1.4,0,2.1-0.4,2.1-1.1c0-0.4-0.2-0.6-0.5-0.7
	c-0.4-0.1-0.9-0.3-1.7-0.4c-0.8-0.1-1.5-0.3-2-0.4c-0.5-0.2-1-0.4-1.4-0.8c-0.4-0.4-0.6-1-0.6-1.7c0-1,0.4-1.7,1.2-2.3
	c0.8-0.6,1.9-0.9,3.2-0.9c0.7,0,1.4,0.1,2.1,0.2c0.7,0.2,1.3,0.4,1.7,0.6l-0.9,1.8c-0.9-0.5-1.8-0.8-2.9-0.8c-0.7,0-1.2,0.1-1.6,0.3
	c-0.4,0.2-0.5,0.5-0.5,0.8c0,0.4,0.2,0.6,0.6,0.8c0.4,0.2,1,0.3,1.8,0.4c0.8,0.1,1.5,0.3,2,0.4c0.5,0.2,1,0.4,1.3,0.8
	c0.4,0.4,0.6,0.9,0.6,1.7c0,0.9-0.4,1.7-1.2,2.3C256.3,219.3,255.2,219.6,253.8,219.6z M271.1,209.3c1,0,1.8,0.2,2.6,0.6
	c0.8,0.4,1.4,1,1.8,1.8c0.4,0.8,0.7,1.7,0.7,2.7c0,1-0.2,1.9-0.7,2.7c-0.4,0.8-1,1.4-1.8,1.8c-0.8,0.4-1.6,0.6-2.6,0.6
	c-0.7,0-1.3-0.1-1.9-0.4c-0.6-0.2-1-0.6-1.4-1.1v1.3h-2.2v-14h2.4v5.1c0.4-0.4,0.9-0.8,1.4-1C269.9,209.4,270.5,209.3,271.1,209.3z
	 M270.9,217.6c0.9,0,1.6-0.3,2.1-0.9c0.6-0.6,0.8-1.3,0.8-2.3c0-0.9-0.3-1.7-0.8-2.3c-0.6-0.6-1.3-0.9-2.1-0.9
	c-0.6,0-1.1,0.1-1.5,0.4c-0.5,0.3-0.8,0.6-1.1,1.1c-0.3,0.5-0.4,1-0.4,1.7s0.1,1.2,0.4,1.7c0.3,0.5,0.6,0.8,1.1,1.1
	C269.8,217.4,270.3,217.6,270.9,217.6z M280.7,210.9c0.7-1.1,1.9-1.6,3.6-1.6v2.2c-0.2,0-0.4-0.1-0.5-0.1c-0.9,0-1.6,0.3-2.1,0.8
	c-0.5,0.5-0.8,1.3-0.8,2.3v4.9h-2.4v-10h2.2V210.9z M290.7,219.6c-1,0-1.9-0.2-2.7-0.7c-0.8-0.4-1.5-1-1.9-1.8
	c-0.5-0.8-0.7-1.7-0.7-2.7s0.2-1.9,0.7-2.7c0.5-0.8,1.1-1.4,1.9-1.8c0.8-0.4,1.7-0.7,2.7-0.7c1,0,1.9,0.2,2.8,0.7
	c0.8,0.4,1.4,1,1.9,1.8c0.5,0.8,0.7,1.7,0.7,2.7s-0.2,1.9-0.7,2.7c-0.5,0.8-1.1,1.4-1.9,1.8C292.6,219.4,291.7,219.6,290.7,219.6z
	 M290.7,217.6c0.9,0,1.6-0.3,2.1-0.9c0.6-0.6,0.8-1.3,0.8-2.3c0-0.9-0.3-1.7-0.8-2.3c-0.6-0.6-1.3-0.9-2.1-0.9s-1.6,0.3-2.1,0.9
	c-0.6,0.6-0.8,1.3-0.8,2.3c0,0.9,0.3,1.7,0.8,2.3C289.1,217.3,289.8,217.6,290.7,217.6z M302.4,215.1l-1.7,1.7v2.7h-2.4v-14h2.4v8.4
	l4.9-4.5h2.8l-4.2,4.2l4.6,5.8h-2.9L302.4,215.1z M319.3,214.5c0,0.2,0,0.4,0,0.7h-7.9c0.1,0.7,0.5,1.3,1.1,1.8
	c0.6,0.4,1.3,0.6,2.2,0.6c1.1,0,2-0.4,2.7-1.1l1.3,1.4c-0.5,0.5-1,0.9-1.7,1.2c-0.7,0.3-1.5,0.4-2.3,0.4c-1.1,0-2.1-0.2-2.9-0.7
	c-0.8-0.4-1.5-1-2-1.8c-0.5-0.8-0.7-1.7-0.7-2.7c0-1,0.2-1.9,0.7-2.6c0.5-0.8,1.1-1.4,1.9-1.8c0.8-0.4,1.7-0.7,2.7-0.7
	c1,0,1.8,0.2,2.6,0.7c0.8,0.4,1.4,1,1.8,1.8C319,212.5,319.3,213.4,319.3,214.5z M314.2,211.2c-0.8,0-1.4,0.2-1.9,0.7
	c-0.5,0.4-0.8,1-0.9,1.8h5.7c-0.1-0.7-0.4-1.3-0.9-1.8C315.6,211.4,314.9,211.2,314.2,211.2z M327.2,209.3c1.3,0,2.3,0.4,3,1.1
	c0.8,0.7,1.1,1.8,1.1,3.3v5.8H329V214c0-0.9-0.2-1.5-0.6-2c-0.4-0.5-1-0.7-1.8-0.7c-0.9,0-1.5,0.3-2,0.8c-0.5,0.5-0.8,1.3-0.8,2.2
	v5.1h-2.4v-10h2.2v1.3c0.4-0.5,0.9-0.8,1.5-1.1C325.8,209.4,326.5,209.3,327.2,209.3z M335.1,219.6c-0.4,0-0.8-0.1-1.1-0.4
	c-0.3-0.3-0.5-0.7-0.5-1.1c0-0.5,0.1-0.8,0.4-1.1c0.3-0.3,0.7-0.4,1.1-0.4c0.4,0,0.8,0.1,1.1,0.4c0.3,0.3,0.5,0.7,0.5,1.1
	c0,0.5-0.2,0.8-0.5,1.1C335.9,219.4,335.6,219.6,335.1,219.6z M45.4,224.1L41,237.3h-2.6l-3.3-9.7l-3.3,9.7h-2.6l-4.4-13.2h2.5
	l3.3,10l3.4-10h2.3l3.3,10.1l3.4-10.1H45.4z M55.8,232.3c0,0.2,0,0.4,0,0.7h-7.9c0.1,0.7,0.5,1.3,1.1,1.8c0.6,0.4,1.3,0.6,2.2,0.6
	c1.1,0,2-0.4,2.7-1.1l1.3,1.4c-0.5,0.5-1,0.9-1.7,1.2c-0.7,0.3-1.5,0.4-2.3,0.4c-1.1,0-2.1-0.2-2.9-0.7c-0.8-0.4-1.5-1-2-1.8
	c-0.5-0.8-0.7-1.7-0.7-2.7c0-1,0.2-1.9,0.7-2.6c0.5-0.8,1.1-1.4,1.9-1.8c0.8-0.4,1.7-0.7,2.7-0.7c1,0,1.8,0.2,2.6,0.7
	c0.8,0.4,1.4,1,1.8,1.8C55.6,230.4,55.8,231.3,55.8,232.3z M50.7,229c-0.8,0-1.4,0.2-1.9,0.7c-0.5,0.4-0.8,1-0.9,1.8h5.7
	c-0.1-0.7-0.4-1.3-0.9-1.8C52.1,229.3,51.5,229,50.7,229z M58.8,223.2c0.4,0,0.8,0.1,1.1,0.4c0.3,0.3,0.4,0.7,0.4,1.1
	c0,0.2,0,0.4-0.1,0.7c-0.1,0.2-0.2,0.5-0.3,1l-1,2.7h-1.5l0.8-2.9c-0.3-0.1-0.5-0.3-0.7-0.5c-0.2-0.3-0.2-0.5-0.2-0.9
	c0-0.5,0.1-0.8,0.4-1.1C58,223.4,58.4,223.2,58.8,223.2z M72.3,227.3l-4.3,10h-2.4l-4.3-10h2.4l3.1,7.4l3.2-7.4H72.3z M83,232.3
	c0,0.2,0,0.4,0,0.7H75c0.1,0.7,0.5,1.3,1.1,1.8c0.6,0.4,1.3,0.6,2.2,0.6c1.1,0,2-0.4,2.7-1.1l1.3,1.4c-0.5,0.5-1,0.9-1.7,1.2
	c-0.7,0.3-1.5,0.4-2.3,0.4c-1.1,0-2.1-0.2-2.9-0.7c-0.8-0.4-1.5-1-2-1.8c-0.5-0.8-0.7-1.7-0.7-2.7c0-1,0.2-1.9,0.7-2.6
	c0.5-0.8,1.1-1.4,1.9-1.8s1.7-0.7,2.7-0.7c1,0,1.8,0.2,2.6,0.7c0.8,0.4,1.4,1,1.8,1.8C82.7,230.4,83,231.3,83,232.3z M77.9,229
	c-0.8,0-1.4,0.2-1.9,0.7c-0.5,0.4-0.8,1-0.9,1.8h5.7c-0.1-0.7-0.4-1.3-0.9-1.8C79.3,229.3,78.7,229,77.9,229z M95,237.4
	c-1,0-2-0.2-2.8-0.7s-1.5-1-1.9-1.8c-0.5-0.8-0.7-1.7-0.7-2.7c0-1,0.2-1.9,0.7-2.7c0.5-0.8,1.1-1.4,1.9-1.8c0.8-0.4,1.8-0.7,2.8-0.7
	c1,0,1.9,0.2,2.6,0.6c0.8,0.4,1.3,1,1.7,1.7l-1.8,1.1c-0.3-0.5-0.7-0.8-1.1-1c-0.4-0.2-0.9-0.4-1.4-0.4c-0.9,0-1.6,0.3-2.2,0.9
	c-0.6,0.6-0.9,1.3-0.9,2.3s0.3,1.7,0.8,2.3c0.6,0.6,1.3,0.8,2.2,0.8c0.5,0,1-0.1,1.4-0.3c0.4-0.2,0.8-0.6,1.1-1.1l1.8,1.1
	c-0.4,0.8-1,1.3-1.7,1.7C96.9,237.2,96,237.4,95,237.4z M105.7,237.4c-1,0-1.9-0.2-2.7-0.7c-0.8-0.4-1.5-1-1.9-1.8
	c-0.5-0.8-0.7-1.7-0.7-2.7c0-1,0.2-1.9,0.7-2.7c0.5-0.8,1.1-1.4,1.9-1.8c0.8-0.4,1.7-0.7,2.7-0.7c1,0,1.9,0.2,2.8,0.7
	c0.8,0.4,1.4,1,1.9,1.8c0.5,0.8,0.7,1.7,0.7,2.7c0,1-0.2,1.9-0.7,2.7c-0.5,0.8-1.1,1.4-1.9,1.8C107.7,237.2,106.7,237.4,105.7,237.4
	z M105.7,235.4c0.9,0,1.6-0.3,2.1-0.9s0.8-1.3,0.8-2.3s-0.3-1.7-0.8-2.3s-1.3-0.9-2.1-0.9c-0.9,0-1.6,0.3-2.1,0.9
	c-0.6,0.6-0.8,1.3-0.8,2.3s0.3,1.7,0.8,2.3C104.1,235.1,104.8,235.4,105.7,235.4z M126,227.1c1.3,0,2.3,0.4,3,1.1
	c0.7,0.7,1.1,1.8,1.1,3.3v5.8h-2.4v-5.5c0-0.9-0.2-1.5-0.6-2c-0.4-0.5-0.9-0.7-1.7-0.7c-0.8,0-1.4,0.3-1.9,0.8
	c-0.5,0.5-0.7,1.3-0.7,2.2v5.1h-2.4v-5.5c0-0.9-0.2-1.5-0.6-2c-0.4-0.5-0.9-0.7-1.7-0.7c-0.8,0-1.4,0.3-1.9,0.8
	c-0.5,0.5-0.7,1.3-0.7,2.2v5.1h-2.4v-10h2.2v1.3c0.4-0.5,0.8-0.8,1.4-1c0.6-0.2,1.2-0.4,1.9-0.4c0.8,0,1.4,0.1,2,0.4
	c0.6,0.3,1.1,0.7,1.4,1.2c0.4-0.5,0.9-0.9,1.6-1.2C124.5,227.3,125.2,227.1,126,227.1z M142.6,232.3c0,0.2,0,0.4,0,0.7h-7.9
	c0.1,0.7,0.5,1.3,1.1,1.8c0.6,0.4,1.3,0.6,2.2,0.6c1.1,0,2-0.4,2.7-1.1l1.3,1.4c-0.5,0.5-1,0.9-1.7,1.2c-0.7,0.3-1.5,0.4-2.3,0.4
	c-1.1,0-2.1-0.2-2.9-0.7c-0.8-0.4-1.5-1-2-1.8c-0.5-0.8-0.7-1.7-0.7-2.7c0-1,0.2-1.9,0.7-2.6c0.5-0.8,1.1-1.4,1.9-1.8
	c0.8-0.4,1.7-0.7,2.7-0.7c1,0,1.8,0.2,2.6,0.7c0.8,0.4,1.4,1,1.8,1.8C142.4,230.4,142.6,231.3,142.6,232.3z M137.6,229
	c-0.8,0-1.4,0.2-1.9,0.7c-0.5,0.4-0.8,1-0.9,1.8h5.7c-0.1-0.7-0.4-1.3-0.9-1.8C139,229.3,138.3,229,137.6,229z M153.9,227.1
	c1.5,0,2.6,0.4,3.4,1.1c0.8,0.7,1.2,1.8,1.2,3.2v5.9h-2.2v-1.2c-0.3,0.4-0.7,0.8-1.2,1c-0.5,0.2-1.2,0.3-1.9,0.3
	c-0.8,0-1.4-0.1-2-0.4c-0.6-0.3-1-0.6-1.3-1.1c-0.3-0.5-0.5-1-0.5-1.6c0-0.9,0.3-1.6,1-2.2c0.7-0.6,1.7-0.8,3.2-0.8h2.6v-0.2
	c0-0.7-0.2-1.2-0.6-1.6c-0.4-0.4-1-0.6-1.9-0.6c-0.6,0-1.1,0.1-1.7,0.3c-0.5,0.2-1,0.4-1.4,0.7l-0.9-1.7c0.5-0.4,1.2-0.7,1.9-0.9
	C152.3,227.3,153.1,227.1,153.9,227.1z M153.6,235.7c0.6,0,1.1-0.1,1.6-0.4c0.5-0.3,0.8-0.7,1-1.2V233h-2.4c-1.4,0-2,0.4-2,1.3
	c0,0.4,0.2,0.8,0.5,1C152.5,235.6,153,235.7,153.6,235.7z M166.7,223.4h2.4v14h-2.4V223.4z M176.7,237.4c-1,0-1.9-0.2-2.7-0.7
	c-0.8-0.4-1.5-1-1.9-1.8c-0.5-0.8-0.7-1.7-0.7-2.7c0-1,0.2-1.9,0.7-2.7c0.5-0.8,1.1-1.4,1.9-1.8c0.8-0.4,1.7-0.7,2.7-0.7
	c1,0,2,0.2,2.8,0.7c0.8,0.4,1.4,1,1.9,1.8c0.5,0.8,0.7,1.7,0.7,2.7c0,1-0.2,1.9-0.7,2.7c-0.5,0.8-1.1,1.4-1.9,1.8
	C178.6,237.2,177.7,237.4,176.7,237.4z M176.7,235.4c0.9,0,1.6-0.3,2.1-0.9c0.6-0.6,0.8-1.3,0.8-2.3s-0.3-1.7-0.8-2.3
	c-0.6-0.6-1.3-0.9-2.1-0.9c-0.9,0-1.6,0.3-2.1,0.9c-0.6,0.6-0.8,1.3-0.8,2.3s0.3,1.7,0.8,2.3C175.1,235.1,175.8,235.4,176.7,235.4z
	 M190,227.1c1.3,0,2.3,0.4,3,1.1c0.8,0.7,1.1,1.8,1.1,3.3v5.8h-2.4v-5.5c0-0.9-0.2-1.5-0.6-2c-0.4-0.5-1-0.7-1.8-0.7
	c-0.9,0-1.5,0.3-2,0.8c-0.5,0.5-0.8,1.3-0.8,2.2v5.1h-2.4v-10h2.2v1.3c0.4-0.5,0.9-0.8,1.5-1.1C188.6,227.3,189.2,227.1,190,227.1z
	 M207.2,227.3v8.5c0,3.5-1.8,5.3-5.4,5.3c-1,0-1.9-0.1-2.7-0.4c-0.9-0.2-1.6-0.6-2.1-1.1l1.1-1.8c0.4,0.4,1,0.7,1.7,0.9
	c0.7,0.2,1.4,0.3,2,0.3c1.1,0,1.9-0.3,2.4-0.8c0.5-0.5,0.8-1.3,0.8-2.3v-0.5c-0.4,0.4-0.9,0.8-1.5,1c-0.6,0.2-1.2,0.3-1.9,0.3
	c-1,0-1.8-0.2-2.6-0.6c-0.8-0.4-1.4-1-1.8-1.7c-0.4-0.7-0.7-1.6-0.7-2.5s0.2-1.8,0.7-2.5c0.5-0.7,1.1-1.3,1.8-1.7
	c0.8-0.4,1.6-0.6,2.6-0.6c0.7,0,1.4,0.1,2,0.4c0.6,0.2,1.1,0.6,1.5,1.1v-1.3H207.2z M201.8,234.9c0.9,0,1.6-0.3,2.2-0.8
	c0.6-0.5,0.9-1.2,0.9-2.1c0-0.8-0.3-1.5-0.9-2c-0.6-0.5-1.3-0.8-2.2-0.8c-0.9,0-1.6,0.3-2.2,0.8c-0.6,0.5-0.8,1.2-0.8,2
	c0,0.9,0.3,1.5,0.8,2.1C200.2,234.6,200.9,234.9,201.8,234.9z M231.2,227.3l-3.7,10h-2.3l-2.6-6.9l-2.6,6.9h-2.3l-3.7-10h2.2
	l2.7,7.4l2.8-7.4h2l2.7,7.4l2.7-7.4H231.2z M236.3,227.1c1.5,0,2.6,0.4,3.4,1.1c0.8,0.7,1.2,1.8,1.2,3.2v5.9h-2.2v-1.2
	c-0.3,0.4-0.7,0.8-1.2,1c-0.5,0.2-1.2,0.3-1.9,0.3s-1.4-0.1-2-0.4c-0.6-0.3-1-0.6-1.3-1.1c-0.3-0.5-0.5-1-0.5-1.6
	c0-0.9,0.3-1.6,1-2.2c0.7-0.6,1.7-0.8,3.2-0.8h2.6v-0.2c0-0.7-0.2-1.2-0.6-1.6c-0.4-0.4-1-0.6-1.9-0.6c-0.6,0-1.1,0.1-1.7,0.3
	c-0.5,0.2-1,0.4-1.4,0.7l-0.9-1.7c0.5-0.4,1.2-0.7,1.9-0.9C234.7,227.3,235.5,227.1,236.3,227.1z M236,235.7c0.6,0,1.1-0.1,1.6-0.4
	c0.5-0.3,0.8-0.7,1-1.2V233h-2.4c-1.4,0-2,0.4-2,1.3c0,0.4,0.2,0.8,0.5,1C234.9,235.6,235.4,235.7,236,235.7z M253.1,227.3
	l-4.7,10.9c-0.4,1.1-1,1.9-1.6,2.3c-0.6,0.5-1.4,0.7-2.3,0.7c-0.5,0-1-0.1-1.5-0.2c-0.5-0.2-0.9-0.4-1.2-0.7l0.9-1.7
	c0.2,0.2,0.5,0.4,0.8,0.5c0.3,0.1,0.6,0.2,0.9,0.2c0.4,0,0.8-0.1,1-0.3c0.3-0.2,0.5-0.6,0.8-1.1l0.2-0.4l-4.4-10.1h2.4l3.2,7.4
	l3.2-7.4H253.1z"/>
<path class="st1" d="M414.3,269.5h-4.4v-2.1h11.2v2.1h-4.4v11.1h-2.4V269.5z M428.4,270.4c1.3,0,2.3,0.4,3,1.1
	c0.8,0.7,1.1,1.8,1.1,3.3v5.8h-2.4v-5.5c0-0.9-0.2-1.5-0.6-2c-0.4-0.5-1-0.7-1.8-0.7c-0.9,0-1.5,0.3-2,0.8c-0.5,0.5-0.8,1.3-0.8,2.2
	v5.1h-2.4v-14h2.4v5.1c0.4-0.4,0.9-0.7,1.4-0.9C427,270.5,427.7,270.4,428.4,270.4z M445.1,275.6c0,0.2,0,0.4,0,0.7h-7.9
	c0.1,0.7,0.5,1.3,1.1,1.8c0.6,0.4,1.3,0.6,2.2,0.6c1.1,0,2-0.4,2.7-1.1l1.3,1.4c-0.5,0.5-1,0.9-1.7,1.2c-0.7,0.3-1.5,0.4-2.3,0.4
	c-1.1,0-2.1-0.2-2.9-0.7c-0.8-0.4-1.5-1-2-1.8c-0.5-0.8-0.7-1.7-0.7-2.7c0-1,0.2-1.9,0.7-2.6c0.5-0.8,1.1-1.4,1.9-1.8
	c0.8-0.4,1.7-0.7,2.7-0.7c1,0,1.8,0.2,2.6,0.7c0.8,0.4,1.4,1,1.8,1.8C444.9,273.7,445.1,274.6,445.1,275.6z M440,272.3
	c-0.8,0-1.4,0.2-1.9,0.7c-0.5,0.4-0.8,1-0.9,1.8h5.7c-0.1-0.7-0.4-1.3-0.9-1.8C441.4,272.5,440.8,272.3,440,272.3z M456.6,268.4
	c-1,0-1.5,0.5-1.5,1.6v0.6h2.8v1.9h-2.7v8.1h-2.4v-8.1h-1.7v-1.9h1.7v-0.6c0-1.1,0.3-1.9,0.9-2.5c0.6-0.6,1.5-0.9,2.7-0.9
	c0.9,0,1.6,0.2,2.1,0.5l-0.7,1.8C457.5,268.5,457.1,268.4,456.6,268.4z M469.2,270.5v10H467v-1.3c-0.4,0.5-0.8,0.8-1.4,1.1
	c-0.6,0.2-1.2,0.4-1.8,0.4c-1.3,0-2.4-0.4-3.2-1.1c-0.8-0.8-1.1-1.9-1.1-3.3v-5.7h2.4v5.4c0,0.9,0.2,1.6,0.6,2
	c0.4,0.4,1,0.7,1.7,0.7c0.8,0,1.5-0.3,2-0.8c0.5-0.5,0.8-1.3,0.8-2.3v-5.1H469.2z M478,270.4c1.3,0,2.3,0.4,3,1.1
	c0.8,0.7,1.1,1.8,1.1,3.3v5.8h-2.4v-5.5c0-0.9-0.2-1.5-0.6-2c-0.4-0.5-1-0.7-1.8-0.7c-0.9,0-1.5,0.3-2,0.8c-0.5,0.5-0.8,1.3-0.8,2.2
	v5.1h-2.4v-10h2.2v1.3c0.4-0.5,0.9-0.8,1.5-1.1C476.6,270.5,477.2,270.4,478,270.4z M495.1,266.6v14h-2.3v-1.3
	c-0.4,0.5-0.9,0.8-1.4,1.1c-0.6,0.2-1.2,0.4-1.9,0.4c-1,0-1.8-0.2-2.6-0.6c-0.8-0.4-1.4-1-1.8-1.8c-0.4-0.8-0.7-1.7-0.7-2.7
	s0.2-1.9,0.7-2.7c0.4-0.8,1-1.4,1.8-1.8c0.8-0.4,1.6-0.6,2.6-0.6c0.7,0,1.3,0.1,1.8,0.3c0.6,0.2,1,0.6,1.4,1v-5.2H495.1z
	 M489.8,278.7c0.6,0,1.1-0.1,1.5-0.4c0.5-0.3,0.8-0.6,1.1-1.1c0.3-0.5,0.4-1,0.4-1.7c0-0.6-0.1-1.2-0.4-1.7
	c-0.3-0.5-0.6-0.8-1.1-1.1c-0.5-0.3-1-0.4-1.5-0.4c-0.6,0-1.1,0.1-1.5,0.4c-0.5,0.3-0.8,0.6-1.1,1.1c-0.3,0.5-0.4,1-0.4,1.7
	c0,0.6,0.1,1.2,0.4,1.7c0.3,0.5,0.6,0.8,1.1,1.1C488.7,278.5,489.2,278.7,489.8,278.7z M500.4,272c0.7-1.1,1.9-1.6,3.6-1.6v2.2
	c-0.2,0-0.4-0.1-0.5-0.1c-0.9,0-1.6,0.3-2.1,0.8c-0.5,0.5-0.8,1.3-0.8,2.3v4.9h-2.4v-10h2.2V272z M509.8,270.4
	c1.5,0,2.6,0.4,3.4,1.1c0.8,0.7,1.2,1.8,1.2,3.2v5.9h-2.2v-1.2c-0.3,0.4-0.7,0.8-1.2,1c-0.5,0.2-1.2,0.3-1.9,0.3s-1.4-0.1-2-0.4
	c-0.6-0.3-1-0.6-1.3-1.1c-0.3-0.5-0.5-1-0.5-1.6c0-0.9,0.3-1.6,1-2.2c0.7-0.6,1.7-0.8,3.2-0.8h2.6v-0.2c0-0.7-0.2-1.2-0.6-1.6
	c-0.4-0.4-1-0.6-1.9-0.6c-0.6,0-1.1,0.1-1.7,0.3c-0.5,0.2-1,0.4-1.4,0.7l-0.9-1.7c0.5-0.4,1.2-0.7,1.9-0.9
	C508.1,270.5,508.9,270.4,509.8,270.4z M509.4,279c0.6,0,1.1-0.1,1.6-0.4c0.5-0.3,0.8-0.7,1-1.2v-1.2h-2.4c-1.4,0-2,0.4-2,1.3
	c0,0.4,0.2,0.8,0.5,1C508.4,278.8,508.8,279,509.4,279z M517.3,270.5h2.4v10h-2.4V270.5z M518.5,268.9c-0.4,0-0.8-0.1-1.1-0.4
	c-0.3-0.3-0.4-0.6-0.4-1c0-0.4,0.1-0.7,0.4-1c0.3-0.3,0.6-0.4,1.1-0.4c0.4,0,0.8,0.1,1.1,0.4c0.3,0.3,0.4,0.6,0.4,1
	c0,0.4-0.1,0.8-0.4,1.1C519.3,268.7,519,268.9,518.5,268.9z M525.9,280.7c-0.8,0-1.6-0.1-2.4-0.3c-0.8-0.2-1.4-0.5-1.9-0.8l0.9-1.8
	c0.5,0.3,1,0.5,1.6,0.7c0.6,0.2,1.3,0.3,1.9,0.3c1.4,0,2.1-0.4,2.1-1.1c0-0.4-0.2-0.6-0.5-0.7c-0.4-0.1-0.9-0.3-1.7-0.4
	c-0.8-0.1-1.5-0.3-2-0.4c-0.5-0.2-1-0.4-1.4-0.8c-0.4-0.4-0.6-1-0.6-1.7c0-1,0.4-1.7,1.2-2.3c0.8-0.6,1.9-0.9,3.2-0.9
	c0.7,0,1.4,0.1,2.1,0.2c0.7,0.2,1.3,0.4,1.7,0.6l-0.9,1.8c-0.9-0.5-1.8-0.8-2.9-0.8c-0.7,0-1.2,0.1-1.6,0.3
	c-0.4,0.2-0.5,0.5-0.5,0.8c0,0.4,0.2,0.6,0.6,0.8c0.4,0.2,1,0.3,1.8,0.4c0.8,0.1,1.5,0.3,2,0.4c0.5,0.2,1,0.4,1.3,0.8
	c0.4,0.4,0.6,0.9,0.6,1.7c0,0.9-0.4,1.7-1.2,2.3C528.4,280.4,527.3,280.7,525.9,280.7z M532.5,270.5h2.4v10h-2.4V270.5z
	 M533.6,268.9c-0.4,0-0.8-0.1-1.1-0.4c-0.3-0.3-0.4-0.6-0.4-1c0-0.4,0.1-0.7,0.4-1c0.3-0.3,0.6-0.4,1.1-0.4c0.4,0,0.8,0.1,1.1,0.4
	c0.3,0.3,0.4,0.6,0.4,1c0,0.4-0.1,0.8-0.4,1.1C534.4,268.7,534.1,268.9,533.6,268.9z M543.6,270.4c1.3,0,2.3,0.4,3,1.1
	c0.8,0.7,1.1,1.8,1.1,3.3v5.8h-2.4v-5.5c0-0.9-0.2-1.5-0.6-2c-0.4-0.5-1-0.7-1.8-0.7c-0.9,0-1.5,0.3-2,0.8c-0.5,0.5-0.8,1.3-0.8,2.2
	v5.1h-2.4v-10h2.2v1.3c0.4-0.5,0.9-0.8,1.5-1.1C542.2,270.5,542.8,270.4,543.6,270.4z M560.8,270.5v8.5c0,3.5-1.8,5.3-5.4,5.3
	c-1,0-1.9-0.1-2.7-0.4c-0.9-0.2-1.6-0.6-2.1-1.1l1.1-1.8c0.4,0.4,1,0.7,1.7,0.9c0.7,0.2,1.4,0.3,2,0.3c1.1,0,1.9-0.3,2.4-0.8
	c0.5-0.5,0.8-1.3,0.8-2.3v-0.5c-0.4,0.4-0.9,0.8-1.5,1c-0.6,0.2-1.2,0.3-1.9,0.3c-1,0-1.8-0.2-2.6-0.6c-0.8-0.4-1.4-1-1.8-1.7
	c-0.4-0.7-0.7-1.6-0.7-2.5c0-1,0.2-1.8,0.7-2.5c0.5-0.7,1.1-1.3,1.8-1.7c0.8-0.4,1.6-0.6,2.6-0.6c0.7,0,1.4,0.1,2,0.4
	c0.6,0.2,1.1,0.6,1.5,1.1v-1.3H560.8z M555.5,278.1c0.9,0,1.6-0.3,2.2-0.8c0.6-0.5,0.9-1.2,0.9-2.1c0-0.8-0.3-1.5-0.9-2
	c-0.6-0.5-1.3-0.8-2.2-0.8c-0.9,0-1.6,0.3-2.2,0.8c-0.6,0.5-0.8,1.2-0.8,2c0,0.9,0.3,1.5,0.8,2.1
	C553.8,277.8,554.6,278.1,555.5,278.1z M572.2,280.7c-0.8,0-1.6-0.1-2.4-0.3c-0.8-0.2-1.4-0.5-1.9-0.8l0.9-1.8
	c0.5,0.3,1,0.5,1.6,0.7c0.6,0.2,1.3,0.3,1.9,0.3c1.4,0,2.1-0.4,2.1-1.1c0-0.4-0.2-0.6-0.5-0.7c-0.4-0.1-0.9-0.3-1.7-0.4
	c-0.8-0.1-1.5-0.3-2-0.4c-0.5-0.2-1-0.4-1.4-0.8c-0.4-0.4-0.6-1-0.6-1.7c0-1,0.4-1.7,1.2-2.3c0.8-0.6,1.9-0.9,3.2-0.9
	c0.7,0,1.4,0.1,2.1,0.2c0.7,0.2,1.3,0.4,1.7,0.6l-0.9,1.8c-0.9-0.5-1.8-0.8-2.9-0.8c-0.7,0-1.2,0.1-1.6,0.3
	c-0.4,0.2-0.5,0.5-0.5,0.8c0,0.4,0.2,0.6,0.6,0.8c0.4,0.2,1,0.3,1.8,0.4c0.8,0.1,1.5,0.3,2,0.4c0.5,0.2,1,0.4,1.3,0.8
	c0.4,0.4,0.6,0.9,0.6,1.7c0,0.9-0.4,1.7-1.2,2.3C574.7,280.4,573.6,280.7,572.2,280.7z M584.3,270.4c1,0,1.8,0.2,2.6,0.6
	c0.8,0.4,1.4,1,1.8,1.8c0.4,0.8,0.7,1.7,0.7,2.7s-0.2,1.9-0.7,2.7c-0.4,0.8-1,1.4-1.8,1.8c-0.8,0.4-1.6,0.6-2.6,0.6
	c-1.4,0-2.4-0.5-3.2-1.4v4.9h-2.4v-13.7h2.2v1.3c0.4-0.5,0.9-0.8,1.4-1.1C583,270.5,583.7,270.4,584.3,270.4z M584.1,278.7
	c0.9,0,1.6-0.3,2.1-0.9c0.6-0.6,0.8-1.3,0.8-2.3s-0.3-1.7-0.8-2.3c-0.6-0.6-1.3-0.9-2.1-0.9c-0.6,0-1.1,0.1-1.5,0.4
	c-0.5,0.3-0.8,0.6-1.1,1.1c-0.3,0.5-0.4,1-0.4,1.7c0,0.6,0.1,1.2,0.4,1.7c0.3,0.5,0.6,0.8,1.1,1.1
	C583,278.5,583.5,278.7,584.1,278.7z M595.4,270.4c1.5,0,2.6,0.4,3.4,1.1c0.8,0.7,1.2,1.8,1.2,3.2v5.9h-2.2v-1.2
	c-0.3,0.4-0.7,0.8-1.2,1c-0.5,0.2-1.2,0.3-1.9,0.3c-0.8,0-1.4-0.1-2-0.4c-0.6-0.3-1-0.6-1.3-1.1c-0.3-0.5-0.5-1-0.5-1.6
	c0-0.9,0.3-1.6,1-2.2c0.7-0.6,1.7-0.8,3.2-0.8h2.6v-0.2c0-0.7-0.2-1.2-0.6-1.6c-0.4-0.4-1-0.6-1.9-0.6c-0.6,0-1.1,0.1-1.7,0.3
	c-0.5,0.2-1,0.4-1.4,0.7l-0.9-1.7c0.5-0.4,1.2-0.7,1.9-0.9S594.6,270.4,595.4,270.4z M595.1,279c0.6,0,1.1-0.1,1.6-0.4
	c0.5-0.3,0.8-0.7,1-1.2v-1.2h-2.4c-1.4,0-2,0.4-2,1.3c0,0.4,0.2,0.8,0.5,1S594.5,279,595.1,279z M607.7,280.7c-1,0-2-0.2-2.8-0.7
	c-0.8-0.4-1.5-1-1.9-1.8c-0.5-0.8-0.7-1.7-0.7-2.7c0-1,0.2-1.9,0.7-2.7c0.5-0.8,1.1-1.4,1.9-1.8c0.8-0.4,1.8-0.7,2.8-0.7
	c1,0,1.9,0.2,2.6,0.6c0.8,0.4,1.3,1,1.7,1.7l-1.8,1.1c-0.3-0.5-0.7-0.8-1.1-1c-0.4-0.2-0.9-0.4-1.4-0.4c-0.9,0-1.6,0.3-2.2,0.9
	c-0.6,0.6-0.9,1.3-0.9,2.3c0,1,0.3,1.7,0.8,2.3c0.6,0.6,1.3,0.8,2.2,0.8c0.5,0,1-0.1,1.4-0.3c0.4-0.2,0.8-0.6,1.1-1.1l1.8,1.1
	c-0.4,0.8-1,1.3-1.7,1.7C609.5,280.5,608.6,280.7,607.7,280.7z M623.3,275.6c0,0.2,0,0.4,0,0.7h-7.9c0.1,0.7,0.5,1.3,1.1,1.8
	c0.6,0.4,1.3,0.6,2.2,0.6c1.1,0,2-0.4,2.7-1.1l1.3,1.4c-0.5,0.5-1,0.9-1.7,1.2c-0.7,0.3-1.5,0.4-2.3,0.4c-1.1,0-2.1-0.2-2.9-0.7
	c-0.8-0.4-1.5-1-2-1.8c-0.5-0.8-0.7-1.7-0.7-2.7c0-1,0.2-1.9,0.7-2.6c0.5-0.8,1.1-1.4,1.9-1.8c0.8-0.4,1.7-0.7,2.7-0.7
	c1,0,1.8,0.2,2.6,0.7c0.8,0.4,1.4,1,1.8,1.8C623.1,273.7,623.3,274.6,623.3,275.6z M618.2,272.3c-0.8,0-1.4,0.2-1.9,0.7
	c-0.5,0.4-0.8,1-0.9,1.8h5.7c-0.1-0.7-0.4-1.3-0.9-1.8C619.6,272.5,619,272.3,618.2,272.3z M630.7,270.5h2.4v10h-2.4V270.5z
	 M631.9,268.9c-0.4,0-0.8-0.1-1.1-0.4c-0.3-0.3-0.4-0.6-0.4-1c0-0.4,0.1-0.7,0.4-1c0.3-0.3,0.6-0.4,1.1-0.4c0.4,0,0.8,0.1,1.1,0.4
	c0.3,0.3,0.4,0.6,0.4,1c0,0.4-0.1,0.8-0.4,1.1C632.7,268.7,632.4,268.9,631.9,268.9z M639.3,280.7c-0.8,0-1.6-0.1-2.4-0.3
	c-0.8-0.2-1.4-0.5-1.9-0.8l0.9-1.8c0.5,0.3,1,0.5,1.6,0.7c0.6,0.2,1.3,0.3,1.9,0.3c1.4,0,2.1-0.4,2.1-1.1c0-0.4-0.2-0.6-0.5-0.7
	c-0.4-0.1-0.9-0.3-1.7-0.4c-0.8-0.1-1.5-0.3-2-0.4c-0.5-0.2-1-0.4-1.4-0.8c-0.4-0.4-0.6-1-0.6-1.7c0-1,0.4-1.7,1.2-2.3
	c0.8-0.6,1.9-0.9,3.2-0.9c0.7,0,1.4,0.1,2.1,0.2c0.7,0.2,1.3,0.4,1.7,0.6l-0.9,1.8c-0.9-0.5-1.8-0.8-2.9-0.8c-0.7,0-1.2,0.1-1.6,0.3
	c-0.4,0.2-0.5,0.5-0.5,0.8c0,0.4,0.2,0.6,0.6,0.8c0.4,0.2,1,0.3,1.8,0.4c0.8,0.1,1.5,0.3,2,0.4c0.5,0.2,1,0.4,1.3,0.8
	c0.4,0.4,0.6,0.9,0.6,1.7c0,0.9-0.4,1.7-1.2,2.3C641.8,280.4,640.7,280.7,639.3,280.7z M656.6,270.4c1,0,1.8,0.2,2.6,0.6
	c0.8,0.4,1.4,1,1.8,1.8c0.4,0.8,0.7,1.7,0.7,2.7s-0.2,1.9-0.7,2.7c-0.4,0.8-1,1.4-1.8,1.8c-0.8,0.4-1.6,0.6-2.6,0.6
	c-0.7,0-1.3-0.1-1.9-0.4c-0.6-0.2-1-0.6-1.4-1.1v1.3H651v-14h2.4v5.1c0.4-0.4,0.9-0.8,1.4-1C655.4,270.5,656,270.4,656.6,270.4z
	 M656.3,278.7c0.9,0,1.6-0.3,2.1-0.9c0.6-0.6,0.8-1.3,0.8-2.3s-0.3-1.7-0.8-2.3c-0.6-0.6-1.3-0.9-2.1-0.9c-0.6,0-1.1,0.1-1.5,0.4
	c-0.5,0.3-0.8,0.6-1.1,1.1c-0.3,0.5-0.4,1-0.4,1.7c0,0.6,0.1,1.2,0.4,1.7c0.3,0.5,0.6,0.8,1.1,1.1
	C655.3,278.5,655.8,278.7,656.3,278.7z M666.2,272c0.7-1.1,1.9-1.6,3.6-1.6v2.2c-0.2,0-0.4-0.1-0.5-0.1c-0.9,0-1.6,0.3-2.1,0.8
	c-0.5,0.5-0.8,1.3-0.8,2.3v4.9h-2.4v-10h2.2V272z M676.2,280.7c-1,0-1.9-0.2-2.7-0.7c-0.8-0.4-1.5-1-1.9-1.8
	c-0.5-0.8-0.7-1.7-0.7-2.7c0-1,0.2-1.9,0.7-2.7c0.5-0.8,1.1-1.4,1.9-1.8c0.8-0.4,1.7-0.7,2.7-0.7c1,0,2,0.2,2.8,0.7
	c0.8,0.4,1.4,1,1.9,1.8c0.5,0.8,0.7,1.7,0.7,2.7c0,1-0.2,1.9-0.7,2.7c-0.5,0.8-1.1,1.4-1.9,1.8C678.1,280.5,677.2,280.7,676.2,280.7
	z M676.2,278.7c0.9,0,1.6-0.3,2.1-0.9c0.6-0.6,0.8-1.3,0.8-2.3s-0.3-1.7-0.8-2.3c-0.6-0.6-1.3-0.9-2.1-0.9c-0.9,0-1.6,0.3-2.1,0.9
	c-0.6,0.6-0.8,1.3-0.8,2.3s0.3,1.7,0.8,2.3C674.6,278.4,675.3,278.7,676.2,278.7z M687.9,276.2l-1.7,1.7v2.7h-2.4v-14h2.4v8.4
	l4.9-4.5h2.8l-4.2,4.2l4.6,5.8h-2.9L687.9,276.2z M704.7,275.6c0,0.2,0,0.4,0,0.7h-7.9c0.1,0.7,0.5,1.3,1.1,1.8
	c0.6,0.4,1.3,0.6,2.2,0.6c1.1,0,2-0.4,2.7-1.1l1.3,1.4c-0.5,0.5-1,0.9-1.7,1.2c-0.7,0.3-1.5,0.4-2.3,0.4c-1.1,0-2.1-0.2-2.9-0.7
	c-0.8-0.4-1.5-1-2-1.8c-0.5-0.8-0.7-1.7-0.7-2.7c0-1,0.2-1.9,0.7-2.6c0.5-0.8,1.1-1.4,1.9-1.8c0.8-0.4,1.7-0.7,2.7-0.7
	c1,0,1.8,0.2,2.6,0.7c0.8,0.4,1.4,1,1.8,1.8C704.5,273.7,704.7,274.6,704.7,275.6z M699.7,272.3c-0.8,0-1.4,0.2-1.9,0.7
	c-0.5,0.4-0.8,1-0.9,1.8h5.7c-0.1-0.7-0.4-1.3-0.9-1.8C701.1,272.5,700.4,272.3,699.7,272.3z M712.7,270.4c1.3,0,2.3,0.4,3,1.1
	c0.8,0.7,1.1,1.8,1.1,3.3v5.8h-2.4v-5.5c0-0.9-0.2-1.5-0.6-2c-0.4-0.5-1-0.7-1.8-0.7c-0.9,0-1.5,0.3-2,0.8c-0.5,0.5-0.8,1.3-0.8,2.2
	v5.1H707v-10h2.2v1.3c0.4-0.5,0.9-0.8,1.5-1.1C711.3,270.5,712,270.4,712.7,270.4z M720.6,280.7c-0.4,0-0.8-0.1-1.1-0.4
	c-0.3-0.3-0.5-0.7-0.5-1.1c0-0.5,0.1-0.8,0.4-1.1c0.3-0.3,0.7-0.4,1.1-0.4c0.4,0,0.8,0.1,1.1,0.4c0.3,0.3,0.5,0.7,0.5,1.1
	c0,0.5-0.2,0.8-0.5,1.1C721.4,280.5,721,280.7,720.6,280.7z M430.8,285.3l-4.4,13.2h-2.6l-3.3-9.7l-3.3,9.7h-2.6l-4.4-13.2h2.5
	l3.3,10l3.4-10h2.3l3.3,10.1l3.4-10.1H430.8z M441.3,293.5c0,0.2,0,0.4,0,0.7h-7.9c0.1,0.7,0.5,1.3,1.1,1.8c0.6,0.4,1.3,0.6,2.2,0.6
	c1.1,0,2-0.4,2.7-1.1l1.3,1.4c-0.5,0.5-1,0.9-1.7,1.2c-0.7,0.3-1.5,0.4-2.3,0.4c-1.1,0-2.1-0.2-2.9-0.7c-0.8-0.4-1.5-1-2-1.8
	c-0.5-0.8-0.7-1.7-0.7-2.7c0-1,0.2-1.9,0.7-2.6c0.5-0.8,1.1-1.4,1.9-1.8c0.8-0.4,1.7-0.7,2.7-0.7c1,0,1.8,0.2,2.6,0.7
	c0.8,0.4,1.4,1,1.8,1.8C441.1,291.5,441.3,292.4,441.3,293.5z M436.2,290.1c-0.8,0-1.4,0.2-1.9,0.7c-0.5,0.4-0.8,1-0.9,1.8h5.7
	c-0.1-0.7-0.4-1.3-0.9-1.8C437.6,290.4,437,290.1,436.2,290.1z M444.3,284.3c0.4,0,0.8,0.1,1.1,0.4c0.3,0.3,0.4,0.7,0.4,1.1
	c0,0.2,0,0.4-0.1,0.7c-0.1,0.2-0.2,0.5-0.3,1l-1,2.7h-1.5l0.8-2.9c-0.3-0.1-0.5-0.3-0.7-0.5c-0.2-0.3-0.2-0.5-0.2-0.9
	c0-0.5,0.1-0.8,0.4-1.1C443.5,284.5,443.9,284.3,444.3,284.3z M457.8,288.4l-4.3,10h-2.4l-4.3-10h2.4l3.1,7.4l3.2-7.4H457.8z
	 M468.5,293.5c0,0.2,0,0.4,0,0.7h-7.9c0.1,0.7,0.5,1.3,1.1,1.8c0.6,0.4,1.3,0.6,2.2,0.6c1.1,0,2-0.4,2.7-1.1l1.3,1.4
	c-0.5,0.5-1,0.9-1.7,1.2c-0.7,0.3-1.5,0.4-2.3,0.4c-1.1,0-2.1-0.2-2.9-0.7c-0.8-0.4-1.5-1-2-1.8c-0.5-0.8-0.7-1.7-0.7-2.7
	c0-1,0.2-1.9,0.7-2.6c0.5-0.8,1.1-1.4,1.9-1.8c0.8-0.4,1.7-0.7,2.7-0.7c1,0,1.8,0.2,2.6,0.7c0.8,0.4,1.4,1,1.8,1.8
	C468.2,291.5,468.5,292.4,468.5,293.5z M463.4,290.1c-0.8,0-1.4,0.2-1.9,0.7c-0.5,0.4-0.8,1-0.9,1.8h5.7c-0.1-0.7-0.4-1.3-0.9-1.8
	C464.8,290.4,464.1,290.1,463.4,290.1z M480.5,298.5c-1,0-2-0.2-2.8-0.7c-0.8-0.4-1.5-1-1.9-1.8c-0.5-0.8-0.7-1.7-0.7-2.7
	c0-1,0.2-1.9,0.7-2.7c0.5-0.8,1.1-1.4,1.9-1.8c0.8-0.4,1.8-0.7,2.8-0.7c1,0,1.9,0.2,2.6,0.6c0.8,0.4,1.3,1,1.7,1.7l-1.8,1.1
	c-0.3-0.5-0.7-0.8-1.1-1c-0.4-0.2-0.9-0.4-1.4-0.4c-0.9,0-1.6,0.3-2.2,0.9c-0.6,0.6-0.9,1.3-0.9,2.3c0,1,0.3,1.7,0.8,2.3
	c0.6,0.6,1.3,0.8,2.2,0.8c0.5,0,1-0.1,1.4-0.3c0.4-0.2,0.8-0.6,1.1-1.1l1.8,1.1c-0.4,0.8-1,1.3-1.7,1.7
	C482.4,298.3,481.5,298.5,480.5,298.5z M491.2,298.5c-1,0-1.9-0.2-2.7-0.7c-0.8-0.4-1.5-1-1.9-1.8c-0.5-0.8-0.7-1.7-0.7-2.7
	c0-1,0.2-1.9,0.7-2.7c0.5-0.8,1.1-1.4,1.9-1.8c0.8-0.4,1.7-0.7,2.7-0.7c1,0,1.9,0.2,2.8,0.7c0.8,0.4,1.4,1,1.9,1.8
	c0.5,0.8,0.7,1.7,0.7,2.7c0,1-0.2,1.9-0.7,2.7c-0.5,0.8-1.1,1.4-1.9,1.8C493.2,298.3,492.2,298.5,491.2,298.5z M491.2,296.5
	c0.9,0,1.6-0.3,2.1-0.9c0.6-0.6,0.8-1.3,0.8-2.3s-0.3-1.7-0.8-2.3c-0.6-0.6-1.3-0.9-2.1-0.9c-0.9,0-1.6,0.3-2.1,0.9
	c-0.6,0.6-0.8,1.3-0.8,2.3s0.3,1.7,0.8,2.3C489.6,296.2,490.3,296.5,491.2,296.5z M511.5,288.3c1.3,0,2.3,0.4,3,1.1
	c0.7,0.7,1.1,1.8,1.1,3.3v5.8h-2.4V293c0-0.9-0.2-1.5-0.6-2c-0.4-0.5-0.9-0.7-1.7-0.7c-0.8,0-1.4,0.3-1.9,0.8
	c-0.5,0.5-0.7,1.3-0.7,2.2v5.1H506V293c0-0.9-0.2-1.5-0.6-2c-0.4-0.5-0.9-0.7-1.7-0.7c-0.8,0-1.4,0.3-1.9,0.8
	c-0.5,0.5-0.7,1.3-0.7,2.2v5.1h-2.4v-10h2.2v1.3c0.4-0.5,0.8-0.8,1.4-1c0.6-0.2,1.2-0.4,1.9-0.4c0.8,0,1.4,0.1,2,0.4
	c0.6,0.3,1.1,0.7,1.4,1.2c0.4-0.5,0.9-0.9,1.6-1.2C510,288.4,510.7,288.3,511.5,288.3z M528.1,293.5c0,0.2,0,0.4,0,0.7h-7.9
	c0.1,0.7,0.5,1.3,1.1,1.8c0.6,0.4,1.3,0.6,2.2,0.6c1.1,0,2-0.4,2.7-1.1l1.3,1.4c-0.5,0.5-1,0.9-1.7,1.2c-0.7,0.3-1.5,0.4-2.3,0.4
	c-1.1,0-2.1-0.2-2.9-0.7c-0.8-0.4-1.5-1-2-1.8c-0.5-0.8-0.7-1.7-0.7-2.7c0-1,0.2-1.9,0.7-2.6c0.5-0.8,1.1-1.4,1.9-1.8
	c0.8-0.4,1.7-0.7,2.7-0.7c1,0,1.8,0.2,2.6,0.7c0.8,0.4,1.4,1,1.8,1.8C527.9,291.5,528.1,292.4,528.1,293.5z M523.1,290.1
	c-0.8,0-1.4,0.2-1.9,0.7c-0.5,0.4-0.8,1-0.9,1.8h5.7c-0.1-0.7-0.4-1.3-0.9-1.8C524.5,290.4,523.8,290.1,523.1,290.1z M539.4,288.3
	c1.5,0,2.6,0.4,3.4,1.1c0.8,0.7,1.2,1.8,1.2,3.2v5.9h-2.2v-1.2c-0.3,0.4-0.7,0.8-1.2,1c-0.5,0.2-1.2,0.3-1.9,0.3
	c-0.8,0-1.4-0.1-2-0.4c-0.6-0.3-1-0.6-1.3-1.1c-0.3-0.5-0.5-1-0.5-1.6c0-0.9,0.3-1.6,1-2.2c0.7-0.6,1.7-0.8,3.2-0.8h2.6v-0.2
	c0-0.7-0.2-1.2-0.6-1.6c-0.4-0.4-1-0.6-1.9-0.6c-0.6,0-1.1,0.1-1.7,0.3c-0.5,0.2-1,0.4-1.4,0.7l-0.9-1.7c0.5-0.4,1.2-0.7,1.9-0.9
	C537.8,288.4,538.6,288.3,539.4,288.3z M539.1,296.8c0.6,0,1.1-0.1,1.6-0.4c0.5-0.3,0.8-0.7,1-1.2v-1.2h-2.4c-1.4,0-2,0.4-2,1.3
	c0,0.4,0.2,0.8,0.5,1C538,296.7,538.5,296.8,539.1,296.8z M552.2,284.5h2.4v14h-2.4V284.5z M562.2,298.5c-1,0-1.9-0.2-2.7-0.7
	c-0.8-0.4-1.5-1-1.9-1.8c-0.5-0.8-0.7-1.7-0.7-2.7c0-1,0.2-1.9,0.7-2.7c0.5-0.8,1.1-1.4,1.9-1.8c0.8-0.4,1.7-0.7,2.7-0.7
	c1,0,2,0.2,2.8,0.7c0.8,0.4,1.4,1,1.9,1.8c0.5,0.8,0.7,1.7,0.7,2.7c0,1-0.2,1.9-0.7,2.7c-0.5,0.8-1.1,1.4-1.9,1.8
	C564.1,298.3,563.2,298.5,562.2,298.5z M562.2,296.5c0.9,0,1.6-0.3,2.1-0.9c0.6-0.6,0.8-1.3,0.8-2.3s-0.3-1.7-0.8-2.3
	c-0.6-0.6-1.3-0.9-2.1-0.9c-0.9,0-1.6,0.3-2.1,0.9c-0.6,0.6-0.8,1.3-0.8,2.3s0.3,1.7,0.8,2.3C560.6,296.2,561.3,296.5,562.2,296.5z
	 M575.5,288.3c1.3,0,2.3,0.4,3,1.1c0.8,0.7,1.1,1.8,1.1,3.3v5.8h-2.4V293c0-0.9-0.2-1.5-0.6-2c-0.4-0.5-1-0.7-1.8-0.7
	c-0.9,0-1.5,0.3-2,0.8c-0.5,0.5-0.8,1.3-0.8,2.2v5.1h-2.4v-10h2.2v1.3c0.4-0.5,0.9-0.8,1.5-1.1C574.1,288.4,574.7,288.3,575.5,288.3
	z M592.7,288.4v8.5c0,3.5-1.8,5.3-5.4,5.3c-1,0-1.9-0.1-2.7-0.4c-0.9-0.2-1.6-0.6-2.1-1.1l1.1-1.8c0.4,0.4,1,0.7,1.7,0.9
	c0.7,0.2,1.4,0.3,2,0.3c1.1,0,1.9-0.3,2.4-0.8c0.5-0.5,0.8-1.3,0.8-2.3v-0.5c-0.4,0.4-0.9,0.8-1.5,1c-0.6,0.2-1.2,0.3-1.9,0.3
	c-1,0-1.8-0.2-2.6-0.6c-0.8-0.4-1.4-1-1.8-1.7c-0.4-0.7-0.7-1.6-0.7-2.5c0-1,0.2-1.8,0.7-2.5c0.5-0.7,1.1-1.3,1.8-1.7
	c0.8-0.4,1.6-0.6,2.6-0.6c0.7,0,1.4,0.1,2,0.4c0.6,0.2,1.1,0.6,1.5,1.1v-1.3H592.7z M587.3,296c0.9,0,1.6-0.3,2.2-0.8
	c0.6-0.5,0.9-1.2,0.9-2.1c0-0.8-0.3-1.5-0.9-2c-0.6-0.5-1.3-0.8-2.2-0.8c-0.9,0-1.6,0.3-2.2,0.8c-0.6,0.5-0.8,1.2-0.8,2
	c0,0.9,0.3,1.5,0.8,2.1C585.7,295.7,586.4,296,587.3,296z M616.6,288.4l-3.7,10h-2.3l-2.6-6.9l-2.6,6.9h-2.3l-3.7-10h2.2l2.7,7.4
	l2.8-7.4h2l2.7,7.4l2.7-7.4H616.6z M621.8,288.3c1.5,0,2.6,0.4,3.4,1.1c0.8,0.7,1.2,1.8,1.2,3.2v5.9h-2.2v-1.2
	c-0.3,0.4-0.7,0.8-1.2,1c-0.5,0.2-1.2,0.3-1.9,0.3c-0.8,0-1.4-0.1-2-0.4c-0.6-0.3-1-0.6-1.3-1.1c-0.3-0.5-0.5-1-0.5-1.6
	c0-0.9,0.3-1.6,1-2.2c0.7-0.6,1.7-0.8,3.2-0.8h2.6v-0.2c0-0.7-0.2-1.2-0.6-1.6c-0.4-0.4-1-0.6-1.9-0.6c-0.6,0-1.1,0.1-1.7,0.3
	c-0.5,0.2-1,0.4-1.4,0.7l-0.9-1.7c0.5-0.4,1.2-0.7,1.9-0.9C620.2,288.4,621,288.3,621.8,288.3z M621.5,296.8c0.6,0,1.1-0.1,1.6-0.4
	c0.5-0.3,0.8-0.7,1-1.2v-1.2h-2.4c-1.4,0-2,0.4-2,1.3c0,0.4,0.2,0.8,0.5,1S620.9,296.8,621.5,296.8z M638.6,288.4l-4.7,10.9
	c-0.4,1.1-1,1.9-1.6,2.3c-0.6,0.5-1.4,0.7-2.3,0.7c-0.5,0-1-0.1-1.5-0.2s-0.9-0.4-1.2-0.7l0.9-1.7c0.2,0.2,0.5,0.4,0.8,0.5
	c0.3,0.1,0.6,0.2,0.9,0.2c0.4,0,0.8-0.1,1-0.3c0.3-0.2,0.5-0.6,0.8-1.1l0.2-0.4l-4.4-10.1h2.4l3.2,7.4l3.2-7.4H638.6z"/>
<g>
	<defs>
		<rect id="SVGID_1_" x="125" y="23.9" width="143.9" height="91.2"/>
	</defs>
	<clipPath id="SVGID_00000043455132890382713820000010288924637130280356_">
		<use xlink:href="#SVGID_1_"  style="overflow:visible;"/>
	</clipPath>
	<g style="clip-path:url(#SVGID_00000043455132890382713820000010288924637130280356_);">
		<path d="M139,99.6c3.5,3.8,8.9,16.9,15.2,15.2c11.4-9.8,21.9-20.6,33.3-30.5c2.7-3.5,19.8-13.4,8.1-15
			c-13,9.1-23.8,21.1-35.8,31.7c1.4-51.3,54.2-95.9,108.9-57.9c0,0-0.5-0.2-0.5-0.5c-0.5-0.7-1.1-1.2-1.9-1.9
			c-27.1-25.6-68-21.3-91.8,5.6l0.3-0.2C161,61.6,152.9,81.3,152.3,101c-6.8-10.6-13.3-21.1-21.7-30.7c-15.4-5.9,3.8,22.5,6.2,26.5
			C137.7,97.7,138.2,98.7,139,99.6z M147.7,106.2C147.7,106.2,147.7,105.9,147.7,106.2C147.7,105.9,147.7,105.9,147.7,106.2
			c0-0.2-0.3-0.2-0.3-0.2c0.8,1.4,1.9,2.6,2.4,4c-0.3,0.2-0.5,0.5-0.5,0.7c-0.3,0.5-0.5,0.9-0.5,1.6c-1.1-2.8-1.9-5.6-3-8.4
			C146.6,104.3,147.2,105.2,147.7,106.2z"/>
	</g>
</g>
<g>
	<defs>
		
			<rect id="SVGID_00000093887563776876370850000014986765920984531618_" x="238.1" y="148.7" transform="matrix(0.2934 -0.956 0.956 0.2934 -62.6367 444.8888)" width="63" height="232.2"/>
	</defs>
	<clipPath id="SVGID_00000173143997977587492500000004039342487875108001_">
		<use xlink:href="#SVGID_00000093887563776876370850000014986765920984531618_"  style="overflow:visible;"/>
	</clipPath>
	<g style="clip-path:url(#SVGID_00000173143997977587492500000004039342487875108001_);">
		<path d="M385.8,269.2c9.2,3.1-4.7,9.1-7.8,11.8c-10.9,7.2-22.9,12.3-34.5,18.1c-1,0.5-2.5,0.9-3.7,0.3
			c-7.4-7.1,15.7-16.5,20.4-19.9c-38.5,8.3-77.7,10.8-116.6,3.7c-32.2-3.9-64.2-10.3-93.4-25.2l0.3,0.1
			c42.5,17,88.5,21.8,133.8,24.3c29.8,0.9,59-6.6,88.2-12.1c-16-6.3-34.3-13.6-49-20.5c19.4,4.5,38.4,10.4,57,17.5
			C382.4,265.9,385.4,266.8,385.8,269.2z"/>
	</g>
</g>
</svg>
